solid OpenSCAD_Model
  facet normal 0 0 -1
    outer loop
      vertex -12.5982 26.4396 0
      vertex 0.174093 22.9703 0
      vertex -24.9851 18.002 0
    endloop
  endfacet
  facet normal 0 0 -1
    outer loop
      vertex 25.3333 18.002 0
      vertex 0.174093 22.9703 0
      vertex 12.9463 26.4396 0
    endloop
  endfacet
  facet normal 0 0 -1
    outer loop
      vertex -24.9851 18.002 0
      vertex 0.174093 22.9703 0
      vertex 25.3333 18.002 0
    endloop
  endfacet
  facet normal 0 0 -1
    outer loop
      vertex 25.2563 8.70429 0
      vertex 25.3333 18.002 0
      vertex 28.5817 7.48772 0
    endloop
  endfacet
  facet normal 0 0 -1
    outer loop
      vertex 15.3377 11.3163 0
      vertex 25.3333 18.002 0
      vertex 25.2563 8.70429 0
    endloop
  endfacet
  facet normal 0 0 -1
    outer loop
      vertex -10.0995 5.72813 0
      vertex 0.174093 -9.66961 0
      vertex -4.45571 -9.68629 0
    endloop
  endfacet
  facet normal 0 0 -1
    outer loop
      vertex 15.3377 11.3163 0
      vertex 21.4194 6.9879 0
      vertex 19.9868 4.10497 0
    endloop
  endfacet
  facet normal 0 0 -1
    outer loop
      vertex 15.3377 11.3163 0
      vertex 25.2563 8.70429 0
      vertex 21.4194 6.9879 0
    endloop
  endfacet
  facet normal 0 0 -1
    outer loop
      vertex -24.9851 18.002 0
      vertex 25.3333 18.002 0
      vertex 15.3377 11.3163 0
    endloop
  endfacet
  facet normal 0 0 -1
    outer loop
      vertex 10.4477 5.72813 0
      vertex -24.9851 18.002 0
      vertex 15.3377 11.3163 0
    endloop
  endfacet
  facet normal 0 0 -1
    outer loop
      vertex -10.0995 5.72813 0
      vertex 4.80389 -9.68629 0
      vertex 0.174093 -9.66961 0
    endloop
  endfacet
  facet normal 0 0 -1
    outer loop
      vertex -10.0995 5.72813 0
      vertex 10.4477 5.72813 0
      vertex 4.80389 -9.68629 0
    endloop
  endfacet
  facet normal 0 0 -1
    outer loop
      vertex -14.9895 11.3163 0
      vertex 10.4477 5.72813 0
      vertex -10.0995 5.72813 0
    endloop
  endfacet
  facet normal 0 0 -1
    outer loop
      vertex -19.6386 4.10497 0
      vertex -24.9851 18.002 0
      vertex -14.9895 11.3163 0
    endloop
  endfacet
  facet normal 0 0 -1
    outer loop
      vertex -24.9851 18.002 0
      vertex 10.4477 5.72813 0
      vertex -14.9895 11.3163 0
    endloop
  endfacet
  facet normal 0 0 -1
    outer loop
      vertex -24.9851 18.002 0
      vertex -19.6386 4.10497 0
      vertex -21.0712 6.9879 0
    endloop
  endfacet
  facet normal 0 0 -1
    outer loop
      vertex -24.9851 18.002 0
      vertex -21.0712 6.9879 0
      vertex -24.1203 5.34381 0
    endloop
  endfacet
  facet normal 0 0 -1
    outer loop
      vertex -24.9851 18.002 0
      vertex -24.1203 5.34381 0
      vertex -24.9082 8.70429 0
    endloop
  endfacet
  facet normal 0 0 -1
    outer loop
      vertex -24.9851 18.002 0
      vertex -24.9082 8.70429 0
      vertex -28.2335 7.48772 0
    endloop
  endfacet
  facet normal 0 0 -1
    outer loop
      vertex 24.4685 5.34381 0
      vertex 21.4194 6.9879 0
      vertex 25.2563 8.70429 0
    endloop
  endfacet
  facet normal -0.922394 0.284971 0.26073
    outer loop
      vertex -26.6185 9.65794 3.34146
      vertex -24.9851 18.002 0
      vertex -28.2335 7.48772 0
    endloop
  endfacet
  facet normal -0.409863 -0.661681 0.627846
    outer loop
      vertex -25.1421 8.79308 3.39377
      vertex -26.6185 9.65794 3.34146
      vertex -28.2335 7.48772 0
    endloop
  endfacet
  facet normal 0.343178 -0.938033 0.0482015
    outer loop
      vertex -24.9082 8.70429 0
      vertex -25.1421 8.79308 3.39377
      vertex -28.2335 7.48772 0
    endloop
  endfacet
  facet normal -0.534931 0.78531 -0.311668
    outer loop
      vertex -12.5982 26.4396 0
      vertex -24.9851 18.002 0
      vertex -27.6822 21.9912 14.6807
    endloop
  endfacet
  facet normal -0.9723 0.107138 -0.207736
    outer loop
      vertex -24.9851 18.002 0
      vertex -26.6185 9.65794 3.34146
      vertex -27.6822 21.9912 14.6807
    endloop
  endfacet
  facet normal -0.491522 -0.870794 -0.0111021
    outer loop
      vertex -24.9082 8.70429 0
      vertex -23.3312 7.7717 3.33221
      vertex -25.1421 8.79308 3.39377
    endloop
  endfacet
  facet normal -0.904942 -0.212151 0.368879
    outer loop
      vertex -24.1203 5.34381 0
      vertex -23.3312 7.7717 3.33221
      vertex -24.9082 8.70429 0
    endloop
  endfacet
  facet normal -0.376602 -0.703999 0.602127
    outer loop
      vertex -21.5203 6.75032 3.27066
      vertex -23.3312 7.7717 3.33221
      vertex -24.1203 5.34381 0
    endloop
  endfacet
  facet normal 0.474605 -0.880198 0.0012331
    outer loop
      vertex -21.0712 6.9879 0
      vertex -21.5203 6.75032 3.27066
      vertex -24.1203 5.34381 0
    endloop
  endfacet
  facet normal -0.489853 -0.862075 -0.129885
    outer loop
      vertex -21.0712 6.9879 0
      vertex -20.3267 6.07905 3.22417
      vertex -21.5203 6.75032 3.27066
    endloop
  endfacet
  facet normal -0.892578 -0.443539 0.0810981
    outer loop
      vertex -19.6386 4.10497 0
      vertex -20.3267 6.07905 3.22417
      vertex -21.0712 6.9879 0
    endloop
  endfacet
  facet normal 0.748385 -0.482484 0.455114
    outer loop
      vertex -19.6386 4.10497 0
      vertex -14.9895 11.3163 0
      vertex -20.3267 6.07905 3.22417
    endloop
  endfacet
  facet normal 0.613117 -0.759222 -0.218333
    outer loop
      vertex -20.3267 6.07905 3.22417
      vertex -14.9895 11.3163 0
      vertex -20.3673 2.8754 14.2501
    endloop
  endfacet
  facet normal 0.891541 -0.447256 0.0715314
    outer loop
      vertex -14.9895 11.3163 0
      vertex -15.5261 11.5504 8.15184
      vertex -20.3673 2.8754 14.2501
    endloop
  endfacet
  facet normal -0.752205 -0.658218 -0.0306127
    outer loop
      vertex -14.9895 11.3163 0
      vertex -10.0995 5.72813 0
      vertex -15.5261 11.5504 8.15184
    endloop
  endfacet
  facet normal -0.814972 0.0488898 -0.577434
    outer loop
      vertex -15.5261 11.5504 8.15184
      vertex -10.0995 5.72813 0
      vertex -20.3673 2.8754 14.2501
    endloop
  endfacet
  facet normal -0.752873 -0.275656 -0.597659
    outer loop
      vertex -10.0995 5.72813 0
      vertex -4.45571 -9.68629 0
      vertex -20.3673 2.8754 14.2501
    endloop
  endfacet
  facet normal -0.759635 -0.319827 -0.566273
    outer loop
      vertex -4.45571 -9.68629 0
      vertex -8.28259 -9.97917 5.29904
      vertex -20.3673 2.8754 14.2501
    endloop
  endfacet
  facet normal 0.00359771 -0.998609 -0.052594
    outer loop
      vertex -4.45571 -9.68629 0
      vertex 0.174093 -9.66961 0
      vertex -8.28259 -9.97917 5.29904
    endloop
  endfacet
  facet normal -0.00359771 -0.998609 -0.052594
    outer loop
      vertex 4.80389 -9.68629 0
      vertex 8.63077 -9.97917 5.29904
      vertex 0.174093 -9.66961 0
    endloop
  endfacet
  facet normal -0.36168 -0.698061 -0.617979
    outer loop
      vertex 0.174093 -9.66961 0
      vertex 0.174093 -18.172 9.60415
      vertex -8.28259 -9.97917 5.29904
    endloop
  endfacet
  facet normal 0.36168 -0.698061 -0.617979
    outer loop
      vertex 0.174093 -9.66961 0
      vertex 8.63077 -9.97917 5.29904
      vertex 0.174093 -18.172 9.60415
    endloop
  endfacet
  facet normal 0.759635 -0.319827 -0.566273
    outer loop
      vertex 20.7155 2.8754 14.2501
      vertex 8.63077 -9.97917 5.29904
      vertex 4.80389 -9.68629 0
    endloop
  endfacet
  facet normal 0.752873 -0.275656 -0.597659
    outer loop
      vertex 10.4477 5.72813 0
      vertex 20.7155 2.8754 14.2501
      vertex 4.80389 -9.68629 0
    endloop
  endfacet
  facet normal 0.814972 0.0488895 -0.577434
    outer loop
      vertex 15.8743 11.5504 8.15184
      vertex 20.7155 2.8754 14.2501
      vertex 10.4477 5.72813 0
    endloop
  endfacet
  facet normal 0.752205 -0.658218 -0.0306127
    outer loop
      vertex 15.3377 11.3163 0
      vertex 15.8743 11.5504 8.15184
      vertex 10.4477 5.72813 0
    endloop
  endfacet
  facet normal -0.891541 -0.447256 0.0715314
    outer loop
      vertex 20.7155 2.8754 14.2501
      vertex 15.8743 11.5504 8.15184
      vertex 15.3377 11.3163 0
    endloop
  endfacet
  facet normal -0.613117 -0.759222 -0.218333
    outer loop
      vertex 20.6748 6.07905 3.22417
      vertex 20.7155 2.8754 14.2501
      vertex 15.3377 11.3163 0
    endloop
  endfacet
  facet normal -0.748385 -0.482484 0.455114
    outer loop
      vertex 19.9868 4.10497 0
      vertex 20.6748 6.07905 3.22417
      vertex 15.3377 11.3163 0
    endloop
  endfacet
  facet normal 0.892578 -0.443539 0.0810977
    outer loop
      vertex 21.4194 6.9879 0
      vertex 20.6748 6.07905 3.22417
      vertex 19.9868 4.10497 0
    endloop
  endfacet
  facet normal -0.474605 -0.880198 0.00123306
    outer loop
      vertex 24.4685 5.34381 0
      vertex 21.8685 6.75032 3.27066
      vertex 21.4194 6.9879 0
    endloop
  endfacet
  facet normal 0.489854 -0.862075 -0.129885
    outer loop
      vertex 21.4194 6.9879 0
      vertex 21.8685 6.75032 3.27066
      vertex 20.6748 6.07905 3.22417
    endloop
  endfacet
  facet normal 0.376602 -0.703998 0.602127
    outer loop
      vertex 24.4685 5.34381 0
      vertex 23.6794 7.7717 3.33221
      vertex 21.8685 6.75032 3.27066
    endloop
  endfacet
  facet normal 0.904942 -0.21215 0.368879
    outer loop
      vertex 24.4685 5.34381 0
      vertex 25.2563 8.70429 0
      vertex 23.6794 7.7717 3.33221
    endloop
  endfacet
  facet normal -0.343178 -0.938033 0.0482018
    outer loop
      vertex 28.5817 7.48772 0
      vertex 25.4903 8.79308 3.39377
      vertex 25.2563 8.70429 0
    endloop
  endfacet
  facet normal 0.491522 -0.870795 -0.0111025
    outer loop
      vertex 25.2563 8.70429 0
      vertex 25.4903 8.79308 3.39377
      vertex 23.6794 7.7717 3.33221
    endloop
  endfacet
  facet normal 0.409863 -0.661682 0.627845
    outer loop
      vertex 28.5817 7.48772 0
      vertex 26.9667 9.65794 3.34146
      vertex 25.4903 8.79308 3.39377
    endloop
  endfacet
  facet normal 0.922395 0.284971 0.260729
    outer loop
      vertex 26.9667 9.65794 3.34146
      vertex 28.5817 7.48772 0
      vertex 25.3333 18.002 0
    endloop
  endfacet
  facet normal 0.534931 0.78531 -0.311668
    outer loop
      vertex 28.0303 21.9912 14.6807
      vertex 25.3333 18.002 0
      vertex 12.9463 26.4396 0
    endloop
  endfacet
  facet normal 0.9723 0.107139 -0.207737
    outer loop
      vertex 28.0303 21.9912 14.6807
      vertex 26.9667 9.65794 3.34146
      vertex 25.3333 18.002 0
    endloop
  endfacet
  facet normal -0.182845 0.673138 -0.716556
    outer loop
      vertex 0.174093 33.507 9.89822
      vertex 12.9463 26.4396 0
      vertex 0.174093 22.9703 0
    endloop
  endfacet
  facet normal 0.540153 0.778757 -0.319019
    outer loop
      vertex 17.7385 29.4372 15.4312
      vertex 28.0303 21.9912 14.6807
      vertex 12.9463 26.4396 0
    endloop
  endfacet
  facet normal 0.384701 0.876398 -0.28971
    outer loop
      vertex 17.7385 29.4372 15.4312
      vertex 12.9463 26.4396 0
      vertex 4.78254 32.6324 7.89289
    endloop
  endfacet
  facet normal -0.18503 0.671091 -0.717914
    outer loop
      vertex 4.78254 32.6324 7.89289
      vertex 12.9463 26.4396 0
      vertex 0.174093 33.507 9.89822
    endloop
  endfacet
  facet normal 0.182845 0.673138 -0.716556
    outer loop
      vertex 0.174093 33.507 9.89822
      vertex 0.174093 22.9703 0
      vertex -12.5982 26.4396 0
    endloop
  endfacet
  facet normal 0.18503 0.671091 -0.717914
    outer loop
      vertex -4.43436 32.6324 7.89289
      vertex 0.174093 33.507 9.89822
      vertex -12.5982 26.4396 0
    endloop
  endfacet
  facet normal -0.384701 0.876398 -0.28971
    outer loop
      vertex -4.43436 32.6324 7.89289
      vertex -12.5982 26.4396 0
      vertex -17.3903 29.4372 15.4312
    endloop
  endfacet
  facet normal -0.540153 0.778757 -0.319019
    outer loop
      vertex -17.3903 29.4372 15.4312
      vertex -12.5982 26.4396 0
      vertex -27.6822 21.9912 14.6807
    endloop
  endfacet
  facet normal -0.972474 0.106618 -0.207187
    outer loop
      vertex -27.6822 21.9912 14.6807
      vertex -26.6185 9.65794 3.34146
      vertex -27.8874 8.58127 8.74333
    endloop
  endfacet
  facet normal -0.478129 -0.833016 -0.278347
    outer loop
      vertex -26.6185 9.65794 3.34146
      vertex -25.1421 8.79308 3.39377
      vertex -27.8874 8.58127 8.74333
    endloop
  endfacet
  facet normal -0.478965 -0.8324 -0.278752
    outer loop
      vertex -25.1421 8.79308 3.39377
      vertex -23.3312 7.7717 3.33221
      vertex -27.8874 8.58127 8.74333
    endloop
  endfacet
  facet normal -0.550552 0.718069 0.425758
    outer loop
      vertex -15.1992 26.7648 22.7717
      vertex -17.3903 29.4372 15.4312
      vertex -27.6822 21.9912 14.6807
    endloop
  endfacet
  facet normal -0.552055 0.0313828 0.833217
    outer loop
      vertex -23.3734 14.9169 17.802
      vertex -15.1992 26.7648 22.7717
      vertex -27.6822 21.9912 14.6807
    endloop
  endfacet
  facet normal -0.793712 -0.236071 0.560617
    outer loop
      vertex -23.3734 14.9169 17.802
      vertex -27.6822 21.9912 14.6807
      vertex -27.8874 8.58127 8.74333
    endloop
  endfacet
  facet normal -0.478965 -0.8324 -0.278752
    outer loop
      vertex -23.3312 7.7717 3.33221
      vertex -21.5203 6.75032 3.27066
      vertex -27.8874 8.58127 8.74333
    endloop
  endfacet
  facet normal -0.478964 -0.832401 -0.27875
    outer loop
      vertex -21.5203 6.75032 3.27066
      vertex -20.3267 6.07905 3.22417
      vertex -27.8874 8.58127 8.74333
    endloop
  endfacet
  facet normal -0.463171 -0.850613 -0.248858
    outer loop
      vertex -20.3267 6.07905 3.22417
      vertex -20.3673 2.8754 14.2501
      vertex -27.8874 8.58127 8.74333
    endloop
  endfacet
  facet normal -0.712743 -0.356171 0.604268
    outer loop
      vertex -20.3673 2.8754 14.2501
      vertex -23.3734 14.9169 17.802
      vertex -27.8874 8.58127 8.74333
    endloop
  endfacet
  facet normal -0.960072 -0.175393 -0.217941
    outer loop
      vertex -20.3673 2.8754 14.2501
      vertex -20.0646 -1.55179 16.4792
      vertex -23.3734 14.9169 17.802
    endloop
  endfacet
  facet normal -0.663711 0.299669 0.685337
    outer loop
      vertex -20.0646 -1.55179 16.4792
      vertex -20.3673 2.8754 14.2501
      vertex -26.7028 -1.47357 10.0162
    endloop
  endfacet
  facet normal -0.359684 0.864878 -0.350163
    outer loop
      vertex -20.3673 2.8754 14.2501
      vertex -21.1721 -3.22873 0
      vertex -26.7028 -1.47357 10.0162
    endloop
  endfacet
  facet normal -0.402619 0.849432 -0.341122
    outer loop
      vertex -20.3673 2.8754 14.2501
      vertex -16.9291 -1.21762 0
      vertex -21.1721 -3.22873 0
    endloop
  endfacet
  facet normal 0.719298 0.694221 -0.0258488
    outer loop
      vertex -8.28259 -9.97917 5.29904
      vertex -16.9291 -1.21762 0
      vertex -20.3673 2.8754 14.2501
    endloop
  endfacet
  facet normal 0.707764 0.70633 0.012992
    outer loop
      vertex -8.28259 -9.97917 5.29904
      vertex -8.23634 -9.92804 0
      vertex -16.9291 -1.21762 0
    endloop
  endfacet
  facet normal 0.96049 -0.278258 0.00569803
    outer loop
      vertex -8.23634 -9.92804 0
      vertex -8.28259 -9.97917 5.29904
      vertex -9.6961 -14.9058 2.98014
    endloop
  endfacet
  facet normal 0.966278 -0.202175 -0.159472
    outer loop
      vertex -8.28259 -9.97917 5.29904
      vertex -8.53896 -15.9329 11.2937
      vertex -9.6961 -14.9058 2.98014
    endloop
  endfacet
  facet normal -0.303514 -0.669531 -0.677943
    outer loop
      vertex -8.28259 -9.97917 5.29904
      vertex 0.174093 -18.172 9.60415
      vertex -8.53896 -15.9329 11.2937
    endloop
  endfacet
  facet normal 0.303514 -0.669531 -0.677943
    outer loop
      vertex 8.63077 -9.97917 5.29904
      vertex 8.88714 -15.9329 11.2937
      vertex 0.174093 -18.172 9.60415
    endloop
  endfacet
  facet normal -0.966278 -0.202175 -0.159472
    outer loop
      vertex 10.0443 -14.9058 2.98014
      vertex 8.88714 -15.9329 11.2937
      vertex 8.63077 -9.97917 5.29904
    endloop
  endfacet
  facet normal -0.96049 -0.278258 0.00569773
    outer loop
      vertex 10.0443 -14.9058 2.98014
      vertex 8.63077 -9.97917 5.29904
      vertex 8.58453 -9.92804 0
    endloop
  endfacet
  facet normal -0.707764 0.70633 0.0129917
    outer loop
      vertex 8.63077 -9.97917 5.29904
      vertex 17.2773 -1.21762 0
      vertex 8.58453 -9.92804 0
    endloop
  endfacet
  facet normal -0.719298 0.694221 -0.0258491
    outer loop
      vertex 20.7155 2.8754 14.2501
      vertex 17.2773 -1.21762 0
      vertex 8.63077 -9.97917 5.29904
    endloop
  endfacet
  facet normal 0.0923554 -0.744894 -0.66076
    outer loop
      vertex 0.174093 -18.172 9.60415
      vertex 6.12732 -29.8083 23.5542
      vertex 0.174093 -30.7852 23.8234
    endloop
  endfacet
  facet normal 0.247044 -0.689654 -0.680696
    outer loop
      vertex 17.5055 -24.92 22.7311
      vertex 6.12732 -29.8083 23.5542
      vertex 0.174093 -18.172 9.60415
    endloop
  endfacet
  facet normal 0.300477 -0.626787 -0.718924
    outer loop
      vertex 8.88714 -15.9329 11.2937
      vertex 17.5055 -24.92 22.7311
      vertex 0.174093 -18.172 9.60415
    endloop
  endfacet
  facet normal -0.300477 -0.626787 -0.718924
    outer loop
      vertex -8.53896 -15.9329 11.2937
      vertex 0.174093 -18.172 9.60415
      vertex -17.1573 -24.92 22.7311
    endloop
  endfacet
  facet normal -0.247044 -0.689654 -0.680696
    outer loop
      vertex 0.174093 -18.172 9.60415
      vertex -5.77913 -29.8083 23.5542
      vertex -17.1573 -24.92 22.7311
    endloop
  endfacet
  facet normal -0.0923554 -0.744894 -0.66076
    outer loop
      vertex 0.174093 -18.172 9.60415
      vertex 0.174093 -30.7852 23.8234
      vertex -5.77913 -29.8083 23.5542
    endloop
  endfacet
  facet normal 0.402619 0.849432 -0.341122
    outer loop
      vertex 20.7155 2.8754 14.2501
      vertex 21.5203 -3.22873 0
      vertex 17.2773 -1.21762 0
    endloop
  endfacet
  facet normal 0.359684 0.864878 -0.350163
    outer loop
      vertex 27.051 -1.47357 10.0162
      vertex 21.5203 -3.22873 0
      vertex 20.7155 2.8754 14.2501
    endloop
  endfacet
  facet normal 0.663711 0.299669 0.685337
    outer loop
      vertex 27.051 -1.47357 10.0162
      vertex 20.7155 2.8754 14.2501
      vertex 20.4127 -1.55179 16.4792
    endloop
  endfacet
  facet normal 0.960072 -0.175393 -0.217942
    outer loop
      vertex 20.7155 2.8754 14.2501
      vertex 23.7216 14.9169 17.802
      vertex 20.4127 -1.55179 16.4792
    endloop
  endfacet
  facet normal 0.712743 -0.356171 0.604268
    outer loop
      vertex 28.2356 8.58127 8.74333
      vertex 23.7216 14.9169 17.802
      vertex 20.7155 2.8754 14.2501
    endloop
  endfacet
  facet normal 0.463171 -0.850613 -0.248858
    outer loop
      vertex 28.2356 8.58127 8.74333
      vertex 20.7155 2.8754 14.2501
      vertex 20.6748 6.07905 3.22417
    endloop
  endfacet
  facet normal 0.478964 -0.832401 -0.278751
    outer loop
      vertex 21.8685 6.75032 3.27066
      vertex 28.2356 8.58127 8.74333
      vertex 20.6748 6.07905 3.22417
    endloop
  endfacet
  facet normal 0.478965 -0.8324 -0.278752
    outer loop
      vertex 23.6794 7.7717 3.33221
      vertex 28.2356 8.58127 8.74333
      vertex 21.8685 6.75032 3.27066
    endloop
  endfacet
  facet normal 0.478965 -0.8324 -0.278751
    outer loop
      vertex 25.4903 8.79308 3.39377
      vertex 28.2356 8.58127 8.74333
      vertex 23.6794 7.7717 3.33221
    endloop
  endfacet
  facet normal 0.478128 -0.833017 -0.278347
    outer loop
      vertex 26.9667 9.65794 3.34146
      vertex 28.2356 8.58127 8.74333
      vertex 25.4903 8.79308 3.39377
    endloop
  endfacet
  facet normal 0.972475 0.106617 -0.207186
    outer loop
      vertex 28.0303 21.9912 14.6807
      vertex 28.2356 8.58127 8.74333
      vertex 26.9667 9.65794 3.34146
    endloop
  endfacet
  facet normal 0.793712 -0.236071 0.560617
    outer loop
      vertex 28.2356 8.58127 8.74333
      vertex 28.0303 21.9912 14.6807
      vertex 23.7216 14.9169 17.802
    endloop
  endfacet
  facet normal 0.552055 0.031383 0.833217
    outer loop
      vertex 23.7216 14.9169 17.802
      vertex 28.0303 21.9912 14.6807
      vertex 15.5473 26.7648 22.7717
    endloop
  endfacet
  facet normal 0.550552 0.718069 0.425758
    outer loop
      vertex 28.0303 21.9912 14.6807
      vertex 17.7385 29.4372 15.4312
      vertex 15.5473 26.7648 22.7717
    endloop
  endfacet
  facet normal 0.196937 0.980095 0.0251104
    outer loop
      vertex 4.78254 32.6324 7.89289
      vertex 0.174093 33.507 9.89822
      vertex 0.174093 33.3921 14.3827
    endloop
  endfacet
  facet normal -0.196937 0.980095 0.0251104
    outer loop
      vertex 0.174093 33.3921 14.3827
      vertex 0.174093 33.507 9.89822
      vertex -4.43436 32.6324 7.89289
    endloop
  endfacet
  facet normal 0.180995 0.905548 0.383697
    outer loop
      vertex 15.5473 26.7648 22.7717
      vertex 17.7385 29.4372 15.4312
      vertex 0.174093 33.3921 14.3827
    endloop
  endfacet
  facet normal 0.217213 0.975301 0.0400703
    outer loop
      vertex 17.7385 29.4372 15.4312
      vertex 4.78254 32.6324 7.89289
      vertex 0.174093 33.3921 14.3827
    endloop
  endfacet
  facet normal -0.217213 0.975301 0.0400703
    outer loop
      vertex 0.174093 33.3921 14.3827
      vertex -4.43436 32.6324 7.89289
      vertex -17.3903 29.4372 15.4312
    endloop
  endfacet
  facet normal -0.180995 0.905548 0.383697
    outer loop
      vertex -15.1992 26.7648 22.7717
      vertex 0.174093 33.3921 14.3827
      vertex -17.3903 29.4372 15.4312
    endloop
  endfacet
  facet normal -0.280968 0.730789 -0.622097
    outer loop
      vertex 0.174093 35.8358 26.4842
      vertex -15.1992 26.7648 22.7717
      vertex -15.9606 31.1697 28.2901
    endloop
  endfacet
  facet normal -0.985839 0.0350365 -0.163996
    outer loop
      vertex -15.9606 31.1697 28.2901
      vertex -15.1992 26.7648 22.7717
      vertex -16.7819 11.4948 29.0237
    endloop
  endfacet
  facet normal -0.772485 0.307546 0.555592
    outer loop
      vertex -16.7819 11.4948 29.0237
      vertex -15.1992 26.7648 22.7717
      vertex -22.9907 2.90629 25.1452
    endloop
  endfacet
  facet normal -0.779144 0.308722 0.545551
    outer loop
      vertex -22.9907 2.90629 25.1452
      vertex -15.1992 26.7648 22.7717
      vertex -23.3734 14.9169 17.802
    endloop
  endfacet
  facet normal -0.0608694 0.83447 0.547681
    outer loop
      vertex 0.174093 29.8635 19.759
      vertex 0.174093 33.3921 14.3827
      vertex -15.1992 26.7648 22.7717
    endloop
  endfacet
  facet normal -0.270375 0.71987 -0.639284
    outer loop
      vertex 0.174093 35.8358 26.4842
      vertex 0.174093 29.8635 19.759
      vertex -15.1992 26.7648 22.7717
    endloop
  endfacet
  facet normal -0.956687 -0.173438 -0.233813
    outer loop
      vertex -20.0646 -1.55179 16.4792
      vertex -22.9907 2.90629 25.1452
      vertex -23.3734 14.9169 17.802
    endloop
  endfacet
  facet normal -0.956317 -0.180107 -0.230257
    outer loop
      vertex -20.0646 -1.55179 16.4792
      vertex -19.3527 -9.49631 19.7369
      vertex -22.9907 2.90629 25.1452
    endloop
  endfacet
  facet normal -0.860499 0.125374 0.493784
    outer loop
      vertex -19.3527 -9.49631 19.7369
      vertex -20.0646 -1.55179 16.4792
      vertex -24.3216 -13.4001 12.069
    endloop
  endfacet
  facet normal -0.697592 -0.0159889 0.716316
    outer loop
      vertex -24.3216 -13.4001 12.069
      vertex -20.0646 -1.55179 16.4792
      vertex -26.7028 -1.47357 10.0162
    endloop
  endfacet
  facet normal -0.867182 -0.247515 -0.432125
    outer loop
      vertex -18.2331 -13.6608 0
      vertex -24.3216 -13.4001 12.069
      vertex -26.7028 -1.47357 10.0162
    endloop
  endfacet
  facet normal -0.866398 -0.244088 -0.435632
    outer loop
      vertex -21.1721 -3.22873 0
      vertex -18.2331 -13.6608 0
      vertex -26.7028 -1.47357 10.0162
    endloop
  endfacet
  facet normal 0 0 -1
    outer loop
      vertex -8.23634 -9.92804 0
      vertex -8.44029 -18.4083 0
      vertex -16.9291 -1.21762 0
    endloop
  endfacet
  facet normal 0 0 -1
    outer loop
      vertex -16.9291 -1.21762 0
      vertex -8.44029 -18.4083 0
      vertex -11.1198 -16.3595 0
    endloop
  endfacet
  facet normal 0 0 -1
    outer loop
      vertex -16.9291 -1.21762 0
      vertex -11.1198 -16.3595 0
      vertex -12.1886 -19.3067 0
    endloop
  endfacet
  facet normal 0 0 -1
    outer loop
      vertex -16.9291 -1.21762 0
      vertex -12.1886 -19.3067 0
      vertex -13.5654 -16.402 0
    endloop
  endfacet
  facet normal 0 0 -1
    outer loop
      vertex -16.9291 -1.21762 0
      vertex -13.5654 -16.402 0
      vertex -16.6069 -18.2035 0
    endloop
  endfacet
  facet normal 0 0 -1
    outer loop
      vertex -16.9291 -1.21762 0
      vertex -16.6069 -18.2035 0
      vertex -18.2331 -13.6608 0
    endloop
  endfacet
  facet normal 0 0 -1
    outer loop
      vertex -16.9291 -1.21762 0
      vertex -18.2331 -13.6608 0
      vertex -21.1721 -3.22873 0
    endloop
  endfacet
  facet normal 0.911819 -0.0219292 0.410007
    outer loop
      vertex -8.44029 -18.4083 0
      vertex -8.23634 -9.92804 0
      vertex -9.6961 -14.9058 2.98014
    endloop
  endfacet
  facet normal 0.0487267 -0.637069 0.769265
    outer loop
      vertex -8.44029 -18.4083 0
      vertex -9.6961 -14.9058 2.98014
      vertex -11.1239 -15.0416 2.95815
    endloop
  endfacet
  facet normal 0.0958647 -0.985234 -0.141856
    outer loop
      vertex -11.1239 -15.0416 2.95815
      vertex -9.6961 -14.9058 2.98014
      vertex -11.1664 -16.2406 11.2572
    endloop
  endfacet
  facet normal 0.117088 -0.983514 -0.137809
    outer loop
      vertex -9.6961 -14.9058 2.98014
      vertex -8.53896 -15.9329 11.2937
      vertex -11.1664 -16.2406 11.2572
    endloop
  endfacet
  facet normal -0.680618 -0.2318 -0.695002
    outer loop
      vertex -8.53896 -15.9329 11.2937
      vertex -17.1573 -24.92 22.7311
      vertex -19.3527 -9.49631 19.7369
    endloop
  endfacet
  facet normal 0.0776853 -0.742386 0.665453
    outer loop
      vertex -11.1664 -16.2406 11.2572
      vertex -8.53896 -15.9329 11.2937
      vertex -19.3527 -9.49631 19.7369
    endloop
  endfacet
  facet normal 0.680618 -0.2318 -0.695002
    outer loop
      vertex 19.7009 -9.49631 19.7369
      vertex 17.5055 -24.92 22.7311
      vertex 8.88714 -15.9329 11.2937
    endloop
  endfacet
  facet normal -0.0776854 -0.742386 0.665453
    outer loop
      vertex 11.5146 -16.2406 11.2572
      vertex 19.7009 -9.49631 19.7369
      vertex 8.88714 -15.9329 11.2937
    endloop
  endfacet
  facet normal -0.117088 -0.983514 -0.137809
    outer loop
      vertex 10.0443 -14.9058 2.98014
      vertex 11.5146 -16.2406 11.2572
      vertex 8.88714 -15.9329 11.2937
    endloop
  endfacet
  facet normal -0.0958648 -0.985234 -0.141856
    outer loop
      vertex 11.4721 -15.0416 2.95815
      vertex 11.5146 -16.2406 11.2572
      vertex 10.0443 -14.9058 2.98014
    endloop
  endfacet
  facet normal -0.0487267 -0.637069 0.769265
    outer loop
      vertex 11.4721 -15.0416 2.95815
      vertex 10.0443 -14.9058 2.98014
      vertex 8.78848 -18.4083 0
    endloop
  endfacet
  facet normal -0.911819 -0.021929 0.410007
    outer loop
      vertex 8.78848 -18.4083 0
      vertex 10.0443 -14.9058 2.98014
      vertex 8.58453 -9.92804 0
    endloop
  endfacet
  facet normal 0 0 -1
    outer loop
      vertex 21.5203 -3.22873 0
      vertex 18.5813 -13.6608 0
      vertex 17.2773 -1.21762 0
    endloop
  endfacet
  facet normal 0 0 -1
    outer loop
      vertex 17.2773 -1.21762 0
      vertex 18.5813 -13.6608 0
      vertex 16.9551 -18.2035 0
    endloop
  endfacet
  facet normal 0 0 -1
    outer loop
      vertex 17.2773 -1.21762 0
      vertex 16.9551 -18.2035 0
      vertex 13.9135 -16.402 0
    endloop
  endfacet
  facet normal 0 0 -1
    outer loop
      vertex 17.2773 -1.21762 0
      vertex 13.9135 -16.402 0
      vertex 12.5368 -19.3067 0
    endloop
  endfacet
  facet normal 0 0 -1
    outer loop
      vertex 17.2773 -1.21762 0
      vertex 12.5368 -19.3067 0
      vertex 11.4679 -16.3595 0
    endloop
  endfacet
  facet normal 0 0 -1
    outer loop
      vertex 17.2773 -1.21762 0
      vertex 11.4679 -16.3595 0
      vertex 8.78848 -18.4083 0
    endloop
  endfacet
  facet normal 0 0 -1
    outer loop
      vertex 17.2773 -1.21762 0
      vertex 8.78848 -18.4083 0
      vertex 8.58453 -9.92804 0
    endloop
  endfacet
  facet normal 0.163901 -0.985252 0.049136
    outer loop
      vertex 6.12732 -29.8083 23.5542
      vertex 5.8616 -29.6513 27.5885
      vertex 0.174093 -30.7852 23.8234
    endloop
  endfacet
  facet normal -0.163901 -0.985252 0.0491359
    outer loop
      vertex 0.174093 -30.7852 23.8234
      vertex -5.51342 -29.6513 27.5885
      vertex -5.77913 -29.8083 23.5542
    endloop
  endfacet
  facet normal 0.0456572 -0.935384 0.350674
    outer loop
      vertex 0.174093 -30.7852 23.8234
      vertex 0.174093 -23.517 43.2106
      vertex -5.51342 -29.6513 27.5885
    endloop
  endfacet
  facet normal -0.0456573 -0.935384 0.350674
    outer loop
      vertex 5.8616 -29.6513 27.5885
      vertex 0.174093 -23.517 43.2106
      vertex 0.174093 -30.7852 23.8234
    endloop
  endfacet
  facet normal 0.39775 -0.915409 0.0618203
    outer loop
      vertex 6.12732 -29.8083 23.5542
      vertex 18.6734 -24.1217 27.038
      vertex 5.8616 -29.6513 27.5885
    endloop
  endfacet
  facet normal 0.39775 -0.915409 0.0618202
    outer loop
      vertex 17.5055 -24.92 22.7311
      vertex 18.6734 -24.1217 27.038
      vertex 6.12732 -29.8083 23.5542
    endloop
  endfacet
  facet normal 0.919997 -0.34526 -0.185477
    outer loop
      vertex 23.6371 -11.7773 28.6802
      vertex 18.6734 -24.1217 27.038
      vertex 17.5055 -24.92 22.7311
    endloop
  endfacet
  facet normal 0.874144 -0.209487 -0.438164
    outer loop
      vertex 19.7009 -9.49631 19.7369
      vertex 23.6371 -11.7773 28.6802
      vertex 17.5055 -24.92 22.7311
    endloop
  endfacet
  facet normal -0.874144 -0.209487 -0.438164
    outer loop
      vertex -19.3527 -9.49631 19.7369
      vertex -17.1573 -24.92 22.7311
      vertex -23.2889 -11.7773 28.6802
    endloop
  endfacet
  facet normal -0.919997 -0.345259 -0.185478
    outer loop
      vertex -17.1573 -24.92 22.7311
      vertex -18.3252 -24.1217 27.038
      vertex -23.2889 -11.7773 28.6802
    endloop
  endfacet
  facet normal -0.39775 -0.915409 0.0618199
    outer loop
      vertex -17.1573 -24.92 22.7311
      vertex -5.77913 -29.8083 23.5542
      vertex -18.3252 -24.1217 27.038
    endloop
  endfacet
  facet normal -0.39775 -0.915409 0.06182
    outer loop
      vertex -5.77913 -29.8083 23.5542
      vertex -5.51342 -29.6513 27.5885
      vertex -18.3252 -24.1217 27.038
    endloop
  endfacet
  facet normal 0.866398 -0.244088 -0.435632
    outer loop
      vertex 21.5203 -3.22873 0
      vertex 27.051 -1.47357 10.0162
      vertex 18.5813 -13.6608 0
    endloop
  endfacet
  facet normal 0.867182 -0.247515 -0.432125
    outer loop
      vertex 27.051 -1.47357 10.0162
      vertex 24.6698 -13.4001 12.069
      vertex 18.5813 -13.6608 0
    endloop
  endfacet
  facet normal 0.697592 -0.0159888 0.716317
    outer loop
      vertex 24.6698 -13.4001 12.069
      vertex 27.051 -1.47357 10.0162
      vertex 20.4127 -1.55179 16.4792
    endloop
  endfacet
  facet normal 0.860499 0.125375 0.493784
    outer loop
      vertex 24.6698 -13.4001 12.069
      vertex 20.4127 -1.55179 16.4792
      vertex 19.7009 -9.49631 19.7369
    endloop
  endfacet
  facet normal 0.956318 -0.180106 -0.230258
    outer loop
      vertex 20.4127 -1.55179 16.4792
      vertex 23.3389 2.90629 25.1452
      vertex 19.7009 -9.49631 19.7369
    endloop
  endfacet
  facet normal 0.956687 -0.173438 -0.233813
    outer loop
      vertex 23.7216 14.9169 17.802
      vertex 23.3389 2.90629 25.1452
      vertex 20.4127 -1.55179 16.4792
    endloop
  endfacet
  facet normal 0.779144 0.308722 0.545551
    outer loop
      vertex 23.3389 2.90629 25.1452
      vertex 23.7216 14.9169 17.802
      vertex 15.5473 26.7648 22.7717
    endloop
  endfacet
  facet normal 0.270375 0.71987 -0.639284
    outer loop
      vertex 0.174093 35.8358 26.4842
      vertex 15.5473 26.7648 22.7717
      vertex 0.174093 29.8635 19.759
    endloop
  endfacet
  facet normal 0.0608694 0.83447 0.547681
    outer loop
      vertex 15.5473 26.7648 22.7717
      vertex 0.174093 33.3921 14.3827
      vertex 0.174093 29.8635 19.759
    endloop
  endfacet
  facet normal 0.772485 0.307546 0.555592
    outer loop
      vertex 17.1301 11.4948 29.0237
      vertex 23.3389 2.90629 25.1452
      vertex 15.5473 26.7648 22.7717
    endloop
  endfacet
  facet normal 0.985839 0.0350365 -0.163996
    outer loop
      vertex 16.3088 31.1697 28.2901
      vertex 17.1301 11.4948 29.0237
      vertex 15.5473 26.7648 22.7717
    endloop
  endfacet
  facet normal 0.280968 0.730789 -0.622097
    outer loop
      vertex 16.3088 31.1697 28.2901
      vertex 15.5473 26.7648 22.7717
      vertex 0.174093 35.8358 26.4842
    endloop
  endfacet
  facet normal 0.295889 0.873768 -0.385979
    outer loop
      vertex 0.174093 38.5856 32.7092
      vertex 16.3088 31.1697 28.2901
      vertex 0.174093 35.8358 26.4842
    endloop
  endfacet
  facet normal -0.295889 0.873768 -0.385979
    outer loop
      vertex 0.174093 38.5856 32.7092
      vertex 0.174093 35.8358 26.4842
      vertex -15.9606 31.1697 28.2901
    endloop
  endfacet
  facet normal -0.349846 0.90512 -0.241589
    outer loop
      vertex -15.5748 33.2134 35.3882
      vertex 0.174093 38.5856 32.7092
      vertex -15.9606 31.1697 28.2901
    endloop
  endfacet
  facet normal -0.922539 0.381269 -0.0596316
    outer loop
      vertex -15.5748 33.2134 35.3882
      vertex -15.9606 31.1697 28.2901
      vertex -22.8267 15.7213 35.7397
    endloop
  endfacet
  facet normal -0.741401 0.00592662 -0.671036
    outer loop
      vertex -15.9606 31.1697 28.2901
      vertex -16.7819 11.4948 29.0237
      vertex -22.8267 15.7213 35.7397
    endloop
  endfacet
  facet normal -0.74409 -0.601185 -0.291388
    outer loop
      vertex -16.7819 11.4948 29.0237
      vertex -12.2837 0.460272 40.3033
      vertex -22.8267 15.7213 35.7397
    endloop
  endfacet
  facet normal -0.76024 0.286232 0.583187
    outer loop
      vertex -16.212 -0.727617 35.7654
      vertex -12.2837 0.460272 40.3033
      vertex -16.7819 11.4948 29.0237
    endloop
  endfacet
  facet normal -0.76024 0.286232 0.583187
    outer loop
      vertex -16.212 -0.727617 35.7654
      vertex -16.7819 11.4948 29.0237
      vertex -22.9907 2.90629 25.1452
    endloop
  endfacet
  facet normal -0.808355 0.153253 0.568397
    outer loop
      vertex -16.212 -0.727617 35.7654
      vertex -22.9907 2.90629 25.1452
      vertex -23.2889 -11.7773 28.6802
    endloop
  endfacet
  facet normal -0.904221 -0.0825142 -0.419017
    outer loop
      vertex -22.9907 2.90629 25.1452
      vertex -19.3527 -9.49631 19.7369
      vertex -23.2889 -11.7773 28.6802
    endloop
  endfacet
  facet normal 0.0771033 -0.742715 0.665153
    outer loop
      vertex -12.2458 -16.3466 11.2639
      vertex -11.1664 -16.2406 11.2572
      vertex -19.3527 -9.49631 19.7369
    endloop
  endfacet
  facet normal 0.0771021 -0.742716 0.665153
    outer loop
      vertex -13.5467 -16.4744 11.2721
      vertex -12.2458 -16.3466 11.2639
      vertex -19.3527 -9.49631 19.7369
    endloop
  endfacet
  facet normal 0.0648432 -0.747705 0.660857
    outer loop
      vertex -17.955 -16.8111 11.3237
      vertex -13.5467 -16.4744 11.2721
      vertex -19.3527 -9.49631 19.7369
    endloop
  endfacet
  facet normal -0.327228 -0.739352 0.588457
    outer loop
      vertex -17.955 -16.8111 11.3237
      vertex -19.3527 -9.49631 19.7369
      vertex -24.3216 -13.4001 12.069
    endloop
  endfacet
  facet normal -0.480805 -0.853891 -0.19924
    outer loop
      vertex -16.5054 -15.648 2.8408
      vertex -17.955 -16.8111 11.3237
      vertex -24.3216 -13.4001 12.069
    endloop
  endfacet
  facet normal -0.52685 -0.812904 -0.248224
    outer loop
      vertex -18.2331 -13.6608 0
      vertex -16.5054 -15.648 2.8408
      vertex -24.3216 -13.4001 12.069
    endloop
  endfacet
  facet normal -0.892237 -0.319406 0.319206
    outer loop
      vertex -16.6069 -18.2035 0
      vertex -16.5054 -15.648 2.8408
      vertex -18.2331 -13.6608 0
    endloop
  endfacet
  facet normal 0.40657 -0.686398 0.602959
    outer loop
      vertex -13.5654 -16.402 0
      vertex -16.5054 -15.648 2.8408
      vertex -16.6069 -18.2035 0
    endloop
  endfacet
  facet normal -0.890859 -0.422243 0.167574
    outer loop
      vertex -12.1886 -19.3067 0
      vertex -13.5513 -15.2724 2.92079
      vertex -13.5654 -16.402 0
    endloop
  endfacet
  facet normal 0.108208 -0.927378 0.358136
    outer loop
      vertex -13.5654 -16.402 0
      vertex -13.5513 -15.2724 2.92079
      vertex -16.5054 -15.648 2.8408
    endloop
  endfacet
  facet normal 0.929244 -0.336999 0.151452
    outer loop
      vertex -11.1198 -16.3595 0
      vertex -11.1239 -15.0416 2.95815
      vertex -12.1886 -19.3067 0
    endloop
  endfacet
  facet normal 0.0422607 -0.576497 0.816005
    outer loop
      vertex -12.1886 -19.3067 0
      vertex -11.1239 -15.0416 2.95815
      vertex -13.5513 -15.2724 2.92079
    endloop
  endfacet
  facet normal -0.572753 -0.749072 0.332935
    outer loop
      vertex -11.1198 -16.3595 0
      vertex -8.44029 -18.4083 0
      vertex -11.1239 -15.0416 2.95815
    endloop
  endfacet
  facet normal 0.0958664 -0.985234 -0.141856
    outer loop
      vertex -11.1239 -15.0416 2.95815
      vertex -13.5467 -16.4744 11.2721
      vertex -13.5513 -15.2724 2.92079
    endloop
  endfacet
  facet normal 0.0958649 -0.985234 -0.141857
    outer loop
      vertex -11.1239 -15.0416 2.95815
      vertex -12.2458 -16.3466 11.2639
      vertex -13.5467 -16.4744 11.2721
    endloop
  endfacet
  facet normal 0.0958669 -0.985234 -0.141856
    outer loop
      vertex -11.1239 -15.0416 2.95815
      vertex -11.1664 -16.2406 11.2572
      vertex -12.2458 -16.3466 11.2639
    endloop
  endfacet
  facet normal 0.904222 -0.082514 -0.419017
    outer loop
      vertex 23.3389 2.90629 25.1452
      vertex 23.6371 -11.7773 28.6802
      vertex 19.7009 -9.49631 19.7369
    endloop
  endfacet
  facet normal 0.327228 -0.739352 0.588457
    outer loop
      vertex 24.6698 -13.4001 12.069
      vertex 19.7009 -9.49631 19.7369
      vertex 18.3032 -16.8111 11.3237
    endloop
  endfacet
  facet normal -0.0648432 -0.747705 0.660857
    outer loop
      vertex 18.3032 -16.8111 11.3237
      vertex 19.7009 -9.49631 19.7369
      vertex 13.8949 -16.4744 11.2721
    endloop
  endfacet
  facet normal -0.077102 -0.742716 0.665153
    outer loop
      vertex 13.8949 -16.4744 11.2721
      vertex 19.7009 -9.49631 19.7369
      vertex 12.594 -16.3466 11.2639
    endloop
  endfacet
  facet normal -0.0771031 -0.742716 0.665153
    outer loop
      vertex 12.594 -16.3466 11.2639
      vertex 19.7009 -9.49631 19.7369
      vertex 11.5146 -16.2406 11.2572
    endloop
  endfacet
  facet normal -0.0958666 -0.985234 -0.141856
    outer loop
      vertex 12.594 -16.3466 11.2639
      vertex 11.5146 -16.2406 11.2572
      vertex 11.4721 -15.0416 2.95815
    endloop
  endfacet
  facet normal -0.0958649 -0.985234 -0.141857
    outer loop
      vertex 13.8949 -16.4744 11.2721
      vertex 12.594 -16.3466 11.2639
      vertex 11.4721 -15.0416 2.95815
    endloop
  endfacet
  facet normal -0.0958664 -0.985234 -0.141856
    outer loop
      vertex 13.8995 -15.2724 2.92079
      vertex 13.8949 -16.4744 11.2721
      vertex 11.4721 -15.0416 2.95815
    endloop
  endfacet
  facet normal -0.0422607 -0.576497 0.816005
    outer loop
      vertex 12.5368 -19.3067 0
      vertex 13.8995 -15.2724 2.92079
      vertex 11.4721 -15.0416 2.95815
    endloop
  endfacet
  facet normal -0.929244 -0.336999 0.151452
    outer loop
      vertex 12.5368 -19.3067 0
      vertex 11.4721 -15.0416 2.95815
      vertex 11.4679 -16.3595 0
    endloop
  endfacet
  facet normal 0.572753 -0.749072 0.332935
    outer loop
      vertex 11.4679 -16.3595 0
      vertex 11.4721 -15.0416 2.95815
      vertex 8.78848 -18.4083 0
    endloop
  endfacet
  facet normal 0.890859 -0.422244 0.167574
    outer loop
      vertex 13.9135 -16.402 0
      vertex 13.8995 -15.2724 2.92079
      vertex 12.5368 -19.3067 0
    endloop
  endfacet
  facet normal -0.108208 -0.927378 0.358136
    outer loop
      vertex 13.9135 -16.402 0
      vertex 16.8536 -15.648 2.8408
      vertex 13.8995 -15.2724 2.92079
    endloop
  endfacet
  facet normal -0.40657 -0.686397 0.602959
    outer loop
      vertex 16.9551 -18.2035 0
      vertex 16.8536 -15.648 2.8408
      vertex 13.9135 -16.402 0
    endloop
  endfacet
  facet normal 0.892237 -0.319406 0.319207
    outer loop
      vertex 16.9551 -18.2035 0
      vertex 18.5813 -13.6608 0
      vertex 16.8536 -15.648 2.8408
    endloop
  endfacet
  facet normal 0.52685 -0.812905 -0.248224
    outer loop
      vertex 18.5813 -13.6608 0
      vertex 24.6698 -13.4001 12.069
      vertex 16.8536 -15.648 2.8408
    endloop
  endfacet
  facet normal 0.364487 -0.813975 0.452321
    outer loop
      vertex 5.8616 -29.6513 27.5885
      vertex 9.02059 -27.2989 29.2762
      vertex 0.174093 -23.517 43.2106
    endloop
  endfacet
  facet normal 0.371297 -0.816198 0.442674
    outer loop
      vertex 18.6734 -24.1217 27.038
      vertex 9.02059 -27.2989 29.2762
      vertex 5.8616 -29.6513 27.5885
    endloop
  endfacet
  facet normal -0.371296 -0.816198 0.442674
    outer loop
      vertex -5.51342 -29.6513 27.5885
      vertex -8.6724 -27.2989 29.2762
      vertex -18.3252 -24.1217 27.038
    endloop
  endfacet
  facet normal -0.364487 -0.813975 0.452321
    outer loop
      vertex -5.51342 -29.6513 27.5885
      vertex 0.174093 -23.517 43.2106
      vertex -8.6724 -27.2989 29.2762
    endloop
  endfacet
  facet normal -0.383435 -0.800467 0.460685
    outer loop
      vertex 0.174093 -23.517 43.2106
      vertex -8.40222 -23.0308 36.9172
      vertex -8.6724 -27.2989 29.2762
    endloop
  endfacet
  facet normal -0.381751 -0.802684 0.458218
    outer loop
      vertex -8.40222 -23.0308 36.9172
      vertex 0.174093 -23.517 43.2106
      vertex -13.3333 -20.2342 37.7079
    endloop
  endfacet
  facet normal -0.382238 -0.801293 0.460242
    outer loop
      vertex -13.3333 -20.2342 37.7079
      vertex 0.174093 -23.517 43.2106
      vertex -15.6232 -16.3013 42.6534
    endloop
  endfacet
  facet normal -0.252982 -0.48941 0.834553
    outer loop
      vertex 0.174093 -23.517 43.2106
      vertex -9.70819 -10.9606 47.5784
      vertex -15.6232 -16.3013 42.6534
    endloop
  endfacet
  facet normal -0.111248 -0.403479 0.908201
    outer loop
      vertex 0.174093 -23.517 43.2106
      vertex 0.174093 -10.9606 48.7889
      vertex -9.70819 -10.9606 47.5784
    endloop
  endfacet
  facet normal 0.111248 -0.403479 0.908201
    outer loop
      vertex 10.0564 -10.9606 47.5784
      vertex 0.174093 -10.9606 48.7889
      vertex 0.174093 -23.517 43.2106
    endloop
  endfacet
  facet normal 0.252981 -0.48941 0.834553
    outer loop
      vertex 15.9713 -16.3013 42.6534
      vertex 10.0564 -10.9606 47.5784
      vertex 0.174093 -23.517 43.2106
    endloop
  endfacet
  facet normal 0.382238 -0.801294 0.460242
    outer loop
      vertex 13.6815 -20.2342 37.7079
      vertex 15.9713 -16.3013 42.6534
      vertex 0.174093 -23.517 43.2106
    endloop
  endfacet
  facet normal 0.381751 -0.802684 0.458218
    outer loop
      vertex 8.75041 -23.0308 36.9172
      vertex 13.6815 -20.2342 37.7079
      vertex 0.174093 -23.517 43.2106
    endloop
  endfacet
  facet normal 0.383436 -0.800466 0.460685
    outer loop
      vertex 9.02059 -27.2989 29.2762
      vertex 8.75041 -23.0308 36.9172
      vertex 0.174093 -23.517 43.2106
    endloop
  endfacet
  facet normal 0.371609 -0.802768 0.466336
    outer loop
      vertex 18.6734 -24.1217 27.038
      vertex 15.9713 -16.3013 42.6534
      vertex 13.6815 -20.2342 37.7079
    endloop
  endfacet
  facet normal 0.854868 -0.389365 0.342921
    outer loop
      vertex 18.6734 -24.1217 27.038
      vertex 23.6371 -11.7773 28.6802
      vertex 15.9713 -16.3013 42.6534
    endloop
  endfacet
  facet normal 0.373037 -0.78573 0.493429
    outer loop
      vertex 18.6734 -24.1217 27.038
      vertex 15.2353 -24.3408 29.2884
      vertex 9.02059 -27.2989 29.2762
    endloop
  endfacet
  facet normal 0.354178 -0.813117 0.461951
    outer loop
      vertex 15.2353 -24.3408 29.2884
      vertex 18.6734 -24.1217 27.038
      vertex 13.6815 -20.2342 37.7079
    endloop
  endfacet
  facet normal 0.87313 -0.305075 0.380229
    outer loop
      vertex 23.6371 -11.7773 28.6802
      vertex 19.9463 -6.72318 41.2106
      vertex 15.9713 -16.3013 42.6534
    endloop
  endfacet
  facet normal 0.85329 0.519769 0.0416821
    outer loop
      vertex 19.9463 -6.72318 41.2106
      vertex 23.6371 -11.7773 28.6802
      vertex 16.5602 -0.727617 35.7654
    endloop
  endfacet
  facet normal 0.808355 0.153253 0.568397
    outer loop
      vertex 23.6371 -11.7773 28.6802
      vertex 23.3389 2.90629 25.1452
      vertex 16.5602 -0.727617 35.7654
    endloop
  endfacet
  facet normal -0.85329 0.519769 0.0416821
    outer loop
      vertex -19.5981 -6.72318 41.2106
      vertex -16.212 -0.727617 35.7654
      vertex -23.2889 -11.7773 28.6802
    endloop
  endfacet
  facet normal -0.873129 -0.305075 0.380229
    outer loop
      vertex -15.6232 -16.3013 42.6534
      vertex -19.5981 -6.72318 41.2106
      vertex -23.2889 -11.7773 28.6802
    endloop
  endfacet
  facet normal -0.854868 -0.389365 0.342921
    outer loop
      vertex -18.3252 -24.1217 27.038
      vertex -15.6232 -16.3013 42.6534
      vertex -23.2889 -11.7773 28.6802
    endloop
  endfacet
  facet normal -0.354177 -0.813117 0.461951
    outer loop
      vertex -14.8871 -24.3408 29.2884
      vertex -13.3333 -20.2342 37.7079
      vertex -18.3252 -24.1217 27.038
    endloop
  endfacet
  facet normal -0.373037 -0.785729 0.49343
    outer loop
      vertex -8.6724 -27.2989 29.2762
      vertex -14.8871 -24.3408 29.2884
      vertex -18.3252 -24.1217 27.038
    endloop
  endfacet
  facet normal -0.371609 -0.802768 0.466336
    outer loop
      vertex -13.3333 -20.2342 37.7079
      vertex -15.6232 -16.3013 42.6534
      vertex -18.3252 -24.1217 27.038
    endloop
  endfacet
  facet normal 0.480805 -0.853891 -0.199241
    outer loop
      vertex 24.6698 -13.4001 12.069
      vertex 18.3032 -16.8111 11.3237
      vertex 16.8536 -15.648 2.8408
    endloop
  endfacet
  facet normal 0.76024 0.286232 0.583187
    outer loop
      vertex 23.3389 2.90629 25.1452
      vertex 17.1301 11.4948 29.0237
      vertex 16.5602 -0.727617 35.7654
    endloop
  endfacet
  facet normal 0.74409 -0.601185 -0.291388
    outer loop
      vertex 17.1301 11.4948 29.0237
      vertex 23.1749 15.7213 35.7397
      vertex 12.6319 0.460272 40.3033
    endloop
  endfacet
  facet normal 0.741401 0.00592667 -0.671036
    outer loop
      vertex 23.1749 15.7213 35.7397
      vertex 17.1301 11.4948 29.0237
      vertex 16.3088 31.1697 28.2901
    endloop
  endfacet
  facet normal 0.76024 0.286232 0.583187
    outer loop
      vertex 16.5602 -0.727617 35.7654
      vertex 17.1301 11.4948 29.0237
      vertex 12.6319 0.460272 40.3033
    endloop
  endfacet
  facet normal 0.922539 0.381269 -0.0596316
    outer loop
      vertex 23.1749 15.7213 35.7397
      vertex 16.3088 31.1697 28.2901
      vertex 15.923 33.2134 35.3882
    endloop
  endfacet
  facet normal 0.349846 0.90512 -0.241589
    outer loop
      vertex 15.923 33.2134 35.3882
      vertex 16.3088 31.1697 28.2901
      vertex 0.174093 38.5856 32.7092
    endloop
  endfacet
  facet normal 0.263851 0.91923 0.29223
    outer loop
      vertex 1.15394 32.1804 51.9725
      vertex 15.923 33.2134 35.3882
      vertex 0.97243 32.2411 51.9456
    endloop
  endfacet
  facet normal 0.263851 0.91923 0.29223
    outer loop
      vertex 0.97243 32.2411 51.9456
      vertex 15.923 33.2134 35.3882
      vertex 0.174093 38.5856 32.7092
    endloop
  endfacet
  facet normal 0.263851 0.91923 0.29223
    outer loop
      vertex 0.97243 32.2411 51.9456
      vertex 0.174093 38.5856 32.7092
      vertex 0.174093 32.3867 52.2083
    endloop
  endfacet
  facet normal -0.263851 0.91923 0.29223
    outer loop
      vertex 0.174093 32.3867 52.2083
      vertex 0.174093 38.5856 32.7092
      vertex -0.914844 32.188 51.85
    endloop
  endfacet
  facet normal -0.263851 0.91923 0.29223
    outer loop
      vertex -0.914844 32.188 51.85
      vertex 0.174093 38.5856 32.7092
      vertex -15.5748 33.2134 35.3882
    endloop
  endfacet
  facet normal -0.257233 0.922882 0.286564
    outer loop
      vertex -15.5748 33.2134 35.3882
      vertex -0.97243 32.1778 51.8314
      vertex -0.914844 32.188 51.85
    endloop
  endfacet
  facet normal -0.257233 0.922882 0.286564
    outer loop
      vertex -2.8 31.5782 52.1218
      vertex -0.97243 32.1778 51.8314
      vertex -15.5748 33.2134 35.3882
    endloop
  endfacet
  facet normal -0.257233 0.922882 0.286564
    outer loop
      vertex -2.8 31.5782 52.1218
      vertex -15.5748 33.2134 35.3882
      vertex -4.23603 30.827 53.2521
    endloop
  endfacet
  facet normal -0.672019 0.546636 0.499579
    outer loop
      vertex -4.28985 30.7699 53.2422
      vertex -4.23603 30.827 53.2521
      vertex -15.5748 33.2134 35.3882
    endloop
  endfacet
  facet normal -0.672019 0.546636 0.499579
    outer loop
      vertex -4.28985 30.7699 53.2422
      vertex -15.5748 33.2134 35.3882
      vertex -4.45504 30.4896 53.3267
    endloop
  endfacet
  facet normal -0.672019 0.546636 0.499579
    outer loop
      vertex -15.5748 33.2134 35.3882
      vertex -21.6335 19.6073 42.126
      vertex -4.45504 30.4896 53.3267
    endloop
  endfacet
  facet normal -0.922539 0.381269 -0.0596314
    outer loop
      vertex -21.6335 19.6073 42.126
      vertex -15.5748 33.2134 35.3882
      vertex -22.8267 15.7213 35.7397
    endloop
  endfacet
  facet normal -0.889657 -0.296929 0.346907
    outer loop
      vertex -15.2319 2.10594 43.563
      vertex -21.6335 19.6073 42.126
      vertex -22.8267 15.7213 35.7397
    endloop
  endfacet
  facet normal -0.719695 -0.601096 -0.347452
    outer loop
      vertex -12.2837 0.460272 40.3033
      vertex -15.2319 2.10594 43.563
      vertex -22.8267 15.7213 35.7397
    endloop
  endfacet
  facet normal -0.182127 -0.934156 0.30689
    outer loop
      vertex -12.2837 0.460272 40.3033
      vertex 0.174093 -1.6021 41.4188
      vertex -15.2319 2.10594 43.563
    endloop
  endfacet
  facet normal -0.184363 -0.899917 0.39517
    outer loop
      vertex 0.174093 -1.6021 41.4188
      vertex -12.2837 0.460272 40.3033
      vertex -16.212 -0.727617 35.7654
    endloop
  endfacet
  facet normal -0.726777 0.639083 0.251731
    outer loop
      vertex -17.2608 -7.72209 50.4948
      vertex -16.212 -0.727617 35.7654
      vertex -19.5981 -6.72318 41.2106
    endloop
  endfacet
  facet normal -0.234969 0.590156 0.772338
    outer loop
      vertex 0.174093 -8.10172 46.3853
      vertex 0.174093 -1.6021 41.4188
      vertex -16.212 -0.727617 35.7654
    endloop
  endfacet
  facet normal -0.123881 0.715255 0.687797
    outer loop
      vertex -9.70819 -10.9606 47.5784
      vertex 0.174093 -8.10172 46.3853
      vertex -16.212 -0.727617 35.7654
    endloop
  endfacet
  facet normal 0.487642 0.774679 0.402589
    outer loop
      vertex -9.70819 -10.9606 47.5784
      vertex -16.212 -0.727617 35.7654
      vertex -17.2608 -7.72209 50.4948
    endloop
  endfacet
  facet normal 0.0737325 -0.987101 -0.142113
    outer loop
      vertex -13.5513 -15.2724 2.92079
      vertex -13.5467 -16.4744 11.2721
      vertex -17.955 -16.8111 11.3237
    endloop
  endfacet
  facet normal 0.128329 -0.985254 -0.113163
    outer loop
      vertex -16.5054 -15.648 2.8408
      vertex -13.5513 -15.2724 2.92079
      vertex -17.955 -16.8111 11.3237
    endloop
  endfacet
  facet normal -0.128329 -0.985254 -0.113163
    outer loop
      vertex 16.8536 -15.648 2.8408
      vertex 18.3032 -16.8111 11.3237
      vertex 13.8995 -15.2724 2.92079
    endloop
  endfacet
  facet normal -0.0737325 -0.987101 -0.142113
    outer loop
      vertex 13.8995 -15.2724 2.92079
      vertex 18.3032 -16.8111 11.3237
      vertex 13.8949 -16.4744 11.2721
    endloop
  endfacet
  facet normal 0.0465505 -0.101888 0.993706
    outer loop
      vertex 15.2353 -24.3408 29.2884
      vertex 13.0446 -20.5171 29.7831
      vertex 9.02059 -27.2989 29.2762
    endloop
  endfacet
  facet normal 0.9988 -0.0181914 0.0454789
    outer loop
      vertex 9.02059 -27.2989 29.2762
      vertex 9.07809 -23.3414 29.5964
      vertex 8.75041 -23.0308 36.9172
    endloop
  endfacet
  facet normal 0.0106316 -0.0807972 0.996674
    outer loop
      vertex 13.0446 -20.5171 29.7831
      vertex 9.07809 -23.3414 29.5964
      vertex 9.02059 -27.2989 29.2762
    endloop
  endfacet
  facet normal -0.0106316 -0.0807972 0.996674
    outer loop
      vertex -8.6724 -27.2989 29.2762
      vertex -8.72991 -23.3414 29.5964
      vertex -12.6965 -20.5171 29.7831
    endloop
  endfacet
  facet normal -0.9988 -0.0181918 0.0454789
    outer loop
      vertex -8.6724 -27.2989 29.2762
      vertex -8.40222 -23.0308 36.9172
      vertex -8.72991 -23.3414 29.5964
    endloop
  endfacet
  facet normal -0.0465505 -0.101888 0.993706
    outer loop
      vertex -8.6724 -27.2989 29.2762
      vertex -12.6965 -20.5171 29.7831
      vertex -14.8871 -24.3408 29.2884
    endloop
  endfacet
  facet normal -0.985263 -0.163258 0.051027
    outer loop
      vertex -8.40222 -23.0308 36.9172
      vertex -8.71652 -21.7195 35.0442
      vertex -8.72991 -23.3414 29.5964
    endloop
  endfacet
  facet normal -0.495232 -0.748528 -0.440966
    outer loop
      vertex -8.71652 -21.7195 35.0442
      vertex -8.40222 -23.0308 36.9172
      vertex -13.3333 -20.2342 37.7079
    endloop
  endfacet
  facet normal 0.884655 -0.462089 0.0621257
    outer loop
      vertex -12.4827 -18.9249 35.3342
      vertex -13.3333 -20.2342 37.7079
      vertex -14.8871 -24.3408 29.2884
    endloop
  endfacet
  facet normal -0.52542 -0.65128 -0.547512
    outer loop
      vertex -12.4827 -18.9249 35.3342
      vertex -8.71652 -21.7195 35.0442
      vertex -13.3333 -20.2342 37.7079
    endloop
  endfacet
  facet normal -0.110861 -0.82592 0.55278
    outer loop
      vertex -15.6232 -16.3013 42.6534
      vertex -15.6089 -11.0551 50.4948
      vertex -20.2488 -10.4323 50.4948
    endloop
  endfacet
  facet normal 0.276718 -0.798915 0.534006
    outer loop
      vertex -9.70819 -10.9606 47.5784
      vertex -15.6089 -11.0551 50.4948
      vertex -15.6232 -16.3013 42.6534
    endloop
  endfacet
  facet normal -0.888045 -0.402119 -0.222881
    outer loop
      vertex -19.5981 -6.72318 41.2106
      vertex -15.6232 -16.3013 42.6534
      vertex -20.2488 -10.4323 50.4948
    endloop
  endfacet
  facet normal 0.430154 0.213193 0.877221
    outer loop
      vertex -15.6089 -11.0551 50.4948
      vertex -9.70819 -10.9606 47.5784
      vertex -17.2608 -7.72209 50.4948
    endloop
  endfacet
  facet normal -0.0933492 0.640719 0.762079
    outer loop
      vertex 0.174093 -10.9606 48.7889
      vertex 0.174093 -8.10172 46.3853
      vertex -9.70819 -10.9606 47.5784
    endloop
  endfacet
  facet normal 0.0933493 0.640719 0.762079
    outer loop
      vertex 10.0564 -10.9606 47.5784
      vertex 0.174093 -8.10172 46.3853
      vertex 0.174093 -10.9606 48.7889
    endloop
  endfacet
  facet normal -0.276718 -0.798915 0.534006
    outer loop
      vertex 15.9713 -16.3013 42.6534
      vertex 15.9571 -11.0551 50.4948
      vertex 10.0564 -10.9606 47.5784
    endloop
  endfacet
  facet normal 0.123881 0.715255 0.687797
    outer loop
      vertex 10.0564 -10.9606 47.5784
      vertex 16.5602 -0.727617 35.7654
      vertex 0.174093 -8.10172 46.3853
    endloop
  endfacet
  facet normal -0.487642 0.774679 0.402589
    outer loop
      vertex 17.609 -7.72209 50.4948
      vertex 16.5602 -0.727617 35.7654
      vertex 10.0564 -10.9606 47.5784
    endloop
  endfacet
  facet normal -0.430154 0.213193 0.877221
    outer loop
      vertex 15.9571 -11.0551 50.4948
      vertex 17.609 -7.72209 50.4948
      vertex 10.0564 -10.9606 47.5784
    endloop
  endfacet
  facet normal 0.110861 -0.82592 0.55278
    outer loop
      vertex 15.9713 -16.3013 42.6534
      vertex 20.597 -10.4323 50.4948
      vertex 15.9571 -11.0551 50.4948
    endloop
  endfacet
  facet normal 0.888045 -0.402119 -0.222881
    outer loop
      vertex 19.9463 -6.72318 41.2106
      vertex 20.597 -10.4323 50.4948
      vertex 15.9713 -16.3013 42.6534
    endloop
  endfacet
  facet normal -0.884655 -0.462088 0.0621249
    outer loop
      vertex 15.2353 -24.3408 29.2884
      vertex 13.6815 -20.2342 37.7079
      vertex 12.8309 -18.9249 35.3342
    endloop
  endfacet
  facet normal 0.525419 -0.65128 -0.547511
    outer loop
      vertex 12.8309 -18.9249 35.3342
      vertex 13.6815 -20.2342 37.7079
      vertex 9.0647 -21.7195 35.0442
    endloop
  endfacet
  facet normal 0.495232 -0.748528 -0.440966
    outer loop
      vertex 9.0647 -21.7195 35.0442
      vertex 13.6815 -20.2342 37.7079
      vertex 8.75041 -23.0308 36.9172
    endloop
  endfacet
  facet normal 0.985263 -0.163258 0.051027
    outer loop
      vertex 9.07809 -23.3414 29.5964
      vertex 9.0647 -21.7195 35.0442
      vertex 8.75041 -23.0308 36.9172
    endloop
  endfacet
  facet normal -0.855934 -0.504844 0.111848
    outer loop
      vertex 13.0446 -20.5171 29.7831
      vertex 15.2353 -24.3408 29.2884
      vertex 12.8309 -18.9249 35.3342
    endloop
  endfacet
  facet normal 0.651953 0.718784 0.241469
    outer loop
      vertex 20.597 -10.4323 50.4948
      vertex 19.9463 -6.72318 41.2106
      vertex 17.609 -7.72209 50.4948
    endloop
  endfacet
  facet normal 0.726777 0.639083 0.251731
    outer loop
      vertex 17.609 -7.72209 50.4948
      vertex 19.9463 -6.72318 41.2106
      vertex 16.5602 -0.727617 35.7654
    endloop
  endfacet
  facet normal 0.234969 0.590156 0.772338
    outer loop
      vertex 16.5602 -0.727617 35.7654
      vertex 0.174093 -1.6021 41.4188
      vertex 0.174093 -8.10172 46.3853
    endloop
  endfacet
  facet normal 0.184363 -0.899917 0.39517
    outer loop
      vertex 16.5602 -0.727617 35.7654
      vertex 12.6319 0.460272 40.3033
      vertex 0.174093 -1.6021 41.4188
    endloop
  endfacet
  facet normal -0.651953 0.718783 0.241469
    outer loop
      vertex -17.2608 -7.72209 50.4948
      vertex -19.5981 -6.72318 41.2106
      vertex -20.2488 -10.4323 50.4948
    endloop
  endfacet
  facet normal 0.855934 -0.504843 0.111847
    outer loop
      vertex -12.6965 -20.5171 29.7831
      vertex -12.4827 -18.9249 35.3342
      vertex -14.8871 -24.3408 29.2884
    endloop
  endfacet
  facet normal 0.182127 -0.934156 0.306891
    outer loop
      vertex 12.6319 0.460272 40.3033
      vertex 15.5801 2.10594 43.563
      vertex 0.174093 -1.6021 41.4188
    endloop
  endfacet
  facet normal 0.719695 -0.601096 -0.347451
    outer loop
      vertex 23.1749 15.7213 35.7397
      vertex 15.5801 2.10594 43.563
      vertex 12.6319 0.460272 40.3033
    endloop
  endfacet
  facet normal 0.889657 -0.296929 0.346907
    outer loop
      vertex 23.1749 15.7213 35.7397
      vertex 21.9816 19.6073 42.126
      vertex 15.5801 2.10594 43.563
    endloop
  endfacet
  facet normal 0.922539 0.381269 -0.0596315
    outer loop
      vertex 21.9816 19.6073 42.126
      vertex 23.1749 15.7213 35.7397
      vertex 15.923 33.2134 35.3882
    endloop
  endfacet
  facet normal 0.672019 0.546636 0.499579
    outer loop
      vertex 4.39959 30.7453 53.5898
      vertex 21.9816 19.6073 42.126
      vertex 15.923 33.2134 35.3882
    endloop
  endfacet
  facet normal 0.672019 0.546636 0.499579
    outer loop
      vertex 4.37711 30.7834 53.5783
      vertex 4.39959 30.7453 53.5898
      vertex 15.923 33.2134 35.3882
    endloop
  endfacet
  facet normal 0.257233 0.922882 0.286564
    outer loop
      vertex 4.28985 30.861 53.4066
      vertex 4.37711 30.7834 53.5783
      vertex 15.923 33.2134 35.3882
    endloop
  endfacet
  facet normal 0.257233 0.922882 0.286564
    outer loop
      vertex 4.28985 30.861 53.4066
      vertex 15.923 33.2134 35.3882
      vertex 2.8 31.6404 52.234
    endloop
  endfacet
  facet normal 0.257233 0.922882 0.286564
    outer loop
      vertex 15.923 33.2134 35.3882
      vertex 1.15394 32.1804 51.9725
      vertex 2.8 31.6404 52.234
    endloop
  endfacet
  facet normal 0 -0.87462 0.48481
    outer loop
      vertex 0.97243 13.7875 18.6546
      vertex 0.97243 32.2411 51.9456
      vertex 0.174093 32.3867 52.2083
    endloop
  endfacet
  facet normal 0 -0.87462 0.48481
    outer loop
      vertex -0.97243 32.1778 51.8314
      vertex 0.97243 13.7875 18.6546
      vertex -0.914844 32.188 51.85
    endloop
  endfacet
  facet normal 0 -0.87462 0.48481
    outer loop
      vertex -0.914844 32.188 51.85
      vertex 0.97243 13.7875 18.6546
      vertex 0.174093 32.3867 52.2083
    endloop
  endfacet
  facet normal 0 -0.87462 0.48481
    outer loop
      vertex -0.97243 13.7875 18.6546
      vertex 0.97243 13.7875 18.6546
      vertex -0.97243 32.1778 51.8314
    endloop
  endfacet
  facet normal -0.34202 -0.821874 0.455572
    outer loop
      vertex 2.8 13.2058 18.9771
      vertex 2.8 31.6404 52.234
      vertex 1.15394 32.1804 51.9725
    endloop
  endfacet
  facet normal -0.34202 -0.821874 0.455572
    outer loop
      vertex 0.97243 32.2411 51.9456
      vertex 2.8 13.2058 18.9771
      vertex 1.15394 32.1804 51.9725
    endloop
  endfacet
  facet normal -0.34202 -0.821874 0.455572
    outer loop
      vertex 0.97243 32.2411 51.9456
      vertex 0.97243 13.7875 18.6546
      vertex 2.8 13.2058 18.9771
    endloop
  endfacet
  facet normal 0.642787 -0.669998 0.371386
    outer loop
      vertex -2.8 13.2058 18.9771
      vertex -2.8 31.5782 52.1218
      vertex -4.23603 30.827 53.2521
    endloop
  endfacet
  facet normal 0.642787 -0.669998 0.371386
    outer loop
      vertex -4.28985 12.1124 19.5832
      vertex -2.8 13.2058 18.9771
      vertex -4.28985 30.7699 53.2422
    endloop
  endfacet
  facet normal 0.642787 -0.669998 0.371386
    outer loop
      vertex -4.28985 30.7699 53.2422
      vertex -2.8 13.2058 18.9771
      vertex -4.23603 30.827 53.2521
    endloop
  endfacet
  facet normal 0.34202 -0.821874 0.455572
    outer loop
      vertex -0.97243 13.7875 18.6546
      vertex -0.97243 32.1778 51.8314
      vertex -2.8 31.5782 52.1218
    endloop
  endfacet
  facet normal 0.34202 -0.821874 0.455572
    outer loop
      vertex -2.8 13.2058 18.9771
      vertex -0.97243 13.7875 18.6546
      vertex -2.8 31.5782 52.1218
    endloop
  endfacet
  facet normal -0.670059 0.576736 0.467329
    outer loop
      vertex -21.6335 19.6073 42.126
      vertex -5.26228 29.1593 53.8109
      vertex -4.45504 30.4896 53.3267
    endloop
  endfacet
  facet normal -0.670059 0.576736 0.467329
    outer loop
      vertex -5.6 27.6996 55.1281
      vertex -5.26228 29.1593 53.8109
      vertex -21.6335 19.6073 42.126
    endloop
  endfacet
  facet normal -0.670059 0.576736 0.467329
    outer loop
      vertex -5.6 27.6996 55.1281
      vertex -21.6335 19.6073 42.126
      vertex -5.53704 27.4869 55.4809
    endloop
  endfacet
  facet normal 0.866025 -0.43731 0.242405
    outer loop
      vertex -4.28985 12.1124 19.5832
      vertex -4.28985 30.7699 53.2422
      vertex -4.45504 30.4896 53.3267
    endloop
  endfacet
  facet normal 0.866025 -0.43731 0.242405
    outer loop
      vertex -5.26228 29.1593 53.8109
      vertex -4.28985 12.1124 19.5832
      vertex -4.45504 30.4896 53.3267
    endloop
  endfacet
  facet normal 0.866025 -0.43731 0.242405
    outer loop
      vertex -5.26228 29.1593 53.8109
      vertex -5.26228 10.6392 20.3997
      vertex -4.28985 12.1124 19.5832
    endloop
  endfacet
  facet normal -0.640434 0.00664492 0.767984
    outer loop
      vertex -14.2213 4.3042 48.4395
      vertex -5.52481 27.4136 55.4917
      vertex -5.53704 27.4869 55.4809
    endloop
  endfacet
  facet normal -0.640434 0.00664492 0.767984
    outer loop
      vertex -21.6335 19.6073 42.126
      vertex -14.2213 4.3042 48.4395
      vertex -5.53704 27.4869 55.4809
    endloop
  endfacet
  facet normal -0.89735 -0.301787 0.322004
    outer loop
      vertex -15.2319 2.10594 43.563
      vertex -14.2213 4.3042 48.4395
      vertex -21.6335 19.6073 42.126
    endloop
  endfacet
  facet normal -0.29184 -0.847857 0.442683
    outer loop
      vertex 0.174093 -2.06954 45.7223
      vertex -14.2213 4.3042 48.4395
      vertex -15.2319 2.10594 43.563
    endloop
  endfacet
  facet normal -0.246465 -0.963485 -0.104654
    outer loop
      vertex 0.174093 -1.6021 41.4188
      vertex 0.174093 -2.06954 45.7223
      vertex -15.2319 2.10594 43.563
    endloop
  endfacet
  facet normal 0.246465 -0.963485 -0.104654
    outer loop
      vertex 0.174093 -1.6021 41.4188
      vertex 15.5801 2.10594 43.563
      vertex 0.174093 -2.06954 45.7223
    endloop
  endfacet
  facet normal 0 0 1
    outer loop
      vertex -15.6089 -11.0551 50.4948
      vertex -17.2608 -7.72209 50.4948
      vertex -20.2488 -10.4323 50.4948
    endloop
  endfacet
  facet normal 0.555818 -0.796368 0.238462
    outer loop
      vertex 9.07809 -23.3414 29.5964
      vertex 13.0446 -20.5171 29.7831
      vertex 9.0647 -21.7195 35.0442
    endloop
  endfacet
  facet normal 0.564985 -0.787102 0.247513
    outer loop
      vertex 13.0446 -20.5171 29.7831
      vertex 12.8309 -18.9249 35.3342
      vertex 9.0647 -21.7195 35.0442
    endloop
  endfacet
  facet normal -0.564985 -0.787102 0.247514
    outer loop
      vertex -8.71652 -21.7195 35.0442
      vertex -12.4827 -18.9249 35.3342
      vertex -12.6965 -20.5171 29.7831
    endloop
  endfacet
  facet normal -0.555819 -0.796368 0.238462
    outer loop
      vertex -8.72991 -23.3414 29.5964
      vertex -8.71652 -21.7195 35.0442
      vertex -12.6965 -20.5171 29.7831
    endloop
  endfacet
  facet normal 0 0 1
    outer loop
      vertex 20.597 -10.4323 50.4948
      vertex 17.609 -7.72209 50.4948
      vertex 15.9571 -11.0551 50.4948
    endloop
  endfacet
  facet normal 0.29184 -0.847857 0.442683
    outer loop
      vertex 15.5801 2.10594 43.563
      vertex 14.5695 4.3042 48.4395
      vertex 0.174093 -2.06954 45.7223
    endloop
  endfacet
  facet normal 0.89735 -0.301788 0.322004
    outer loop
      vertex 15.5801 2.10594 43.563
      vertex 21.9816 19.6073 42.126
      vertex 14.5695 4.3042 48.4395
    endloop
  endfacet
  facet normal 0.640434 0.00664483 0.767984
    outer loop
      vertex 14.5695 4.3042 48.4395
      vertex 21.9816 19.6073 42.126
      vertex 5.83644 27.5108 55.5214
    endloop
  endfacet
  facet normal 0.670059 0.576736 0.467329
    outer loop
      vertex 5.26228 29.3237 54.1073
      vertex 5.52192 28.2014 55.12
      vertex 5.83644 27.5108 55.5214
    endloop
  endfacet
  facet normal 0.670059 0.576736 0.467329
    outer loop
      vertex 4.39959 30.7453 53.5898
      vertex 5.26228 29.3237 54.1073
      vertex 21.9816 19.6073 42.126
    endloop
  endfacet
  facet normal 0.670059 0.576736 0.467329
    outer loop
      vertex 21.9816 19.6073 42.126
      vertex 5.26228 29.3237 54.1073
      vertex 5.83644 27.5108 55.5214
    endloop
  endfacet
  facet normal -0.866025 -0.43731 0.242405
    outer loop
      vertex 5.26228 29.3237 54.1073
      vertex 4.39959 30.7453 53.5898
      vertex 5.26228 10.6392 20.3997
    endloop
  endfacet
  facet normal -0.866025 -0.43731 0.242405
    outer loop
      vertex 5.26228 10.6392 20.3997
      vertex 4.39959 30.7453 53.5898
      vertex 4.37711 30.7834 53.5783
    endloop
  endfacet
  facet normal -0.866025 -0.43731 0.242405
    outer loop
      vertex 5.26228 10.6392 20.3997
      vertex 4.37711 30.7834 53.5783
      vertex 4.28985 30.861 53.4066
    endloop
  endfacet
  facet normal -0.866025 -0.43731 0.242405
    outer loop
      vertex 5.26228 10.6392 20.3997
      vertex 4.28985 30.861 53.4066
      vertex 4.28985 12.1124 19.5832
    endloop
  endfacet
  facet normal -0.642787 -0.669998 0.371386
    outer loop
      vertex 4.28985 12.1124 19.5832
      vertex 4.28985 30.861 53.4066
      vertex 2.8 31.6404 52.234
    endloop
  endfacet
  facet normal -0.642787 -0.669998 0.371386
    outer loop
      vertex 2.8 13.2058 18.9771
      vertex 4.28985 12.1124 19.5832
      vertex 2.8 31.6404 52.234
    endloop
  endfacet
  facet normal 0 0.48481 0.87462
    outer loop
      vertex -5.26228 7.2889 22.2568
      vertex -4.28985 5.81578 23.0734
      vertex -2.8 4.72239 23.6795
    endloop
  endfacet
  facet normal 0 0.48481 0.87462
    outer loop
      vertex 0.97243 4.14061 24.002
      vertex -5.26228 7.2889 22.2568
      vertex -0.97243 4.14061 24.002
    endloop
  endfacet
  facet normal 0 0.48481 0.87462
    outer loop
      vertex -0.97243 4.14061 24.002
      vertex -5.26228 7.2889 22.2568
      vertex -2.8 4.72239 23.6795
    endloop
  endfacet
  facet normal 0 0.48481 0.87462
    outer loop
      vertex 2.8 4.72239 23.6795
      vertex -5.26228 7.2889 22.2568
      vertex 0.97243 4.14061 24.002
    endloop
  endfacet
  facet normal 0 0.48481 0.87462
    outer loop
      vertex 4.28985 5.81578 23.0734
      vertex -5.26228 7.2889 22.2568
      vertex 2.8 4.72239 23.6795
    endloop
  endfacet
  facet normal 0 0.48481 0.87462
    outer loop
      vertex 5.26228 7.2889 22.2568
      vertex -5.26228 7.2889 22.2568
      vertex 4.28985 5.81578 23.0734
    endloop
  endfacet
  facet normal 0 0.48481 0.87462
    outer loop
      vertex 5.6 8.96407 21.3283
      vertex -5.26228 7.2889 22.2568
      vertex 5.26228 7.2889 22.2568
    endloop
  endfacet
  facet normal 0 0.48481 0.87462
    outer loop
      vertex 5.26228 10.6392 20.3997
      vertex -5.26228 7.2889 22.2568
      vertex 5.6 8.96407 21.3283
    endloop
  endfacet
  facet normal 0 0.48481 0.87462
    outer loop
      vertex 4.28985 12.1124 19.5832
      vertex -5.26228 7.2889 22.2568
      vertex 5.26228 10.6392 20.3997
    endloop
  endfacet
  facet normal 0 0.48481 0.87462
    outer loop
      vertex 2.8 13.2058 18.9771
      vertex -5.26228 7.2889 22.2568
      vertex 4.28985 12.1124 19.5832
    endloop
  endfacet
  facet normal 0 0.48481 0.87462
    outer loop
      vertex 0.97243 13.7875 18.6546
      vertex -5.26228 7.2889 22.2568
      vertex 2.8 13.2058 18.9771
    endloop
  endfacet
  facet normal 0 0.48481 0.87462
    outer loop
      vertex -0.97243 13.7875 18.6546
      vertex -5.26228 7.2889 22.2568
      vertex 0.97243 13.7875 18.6546
    endloop
  endfacet
  facet normal 0 0.48481 0.87462
    outer loop
      vertex -2.8 13.2058 18.9771
      vertex -5.26228 7.2889 22.2568
      vertex -0.97243 13.7875 18.6546
    endloop
  endfacet
  facet normal 0 0.48481 0.87462
    outer loop
      vertex -4.28985 12.1124 19.5832
      vertex -5.26228 7.2889 22.2568
      vertex -2.8 13.2058 18.9771
    endloop
  endfacet
  facet normal 0 0.48481 0.87462
    outer loop
      vertex -5.26228 10.6392 20.3997
      vertex -5.26228 7.2889 22.2568
      vertex -4.28985 12.1124 19.5832
    endloop
  endfacet
  facet normal 0 0.48481 0.87462
    outer loop
      vertex -5.6 8.96407 21.3283
      vertex -5.26228 7.2889 22.2568
      vertex -5.26228 10.6392 20.3997
    endloop
  endfacet
  facet normal 0.984808 0.151876 -0.0841862
    outer loop
      vertex -5.6 27.6996 55.1281
      vertex -5.53704 27.4869 55.4809
      vertex -5.52481 27.4136 55.4917
    endloop
  endfacet
  facet normal 0.984808 0.151876 -0.0841862
    outer loop
      vertex -5.26228 25.8588 55.7579
      vertex -5.6 27.6996 55.1281
      vertex -5.52481 27.4136 55.4917
    endloop
  endfacet
  facet normal 0.984808 0.151876 -0.0841862
    outer loop
      vertex -5.26228 25.8588 55.7579
      vertex -5.26228 7.2889 22.2568
      vertex -5.6 27.6996 55.1281
    endloop
  endfacet
  facet normal 0.984808 0.151876 -0.0841862
    outer loop
      vertex -5.26228 7.2889 22.2568
      vertex -5.6 8.96407 21.3283
      vertex -5.6 27.6996 55.1281
    endloop
  endfacet
  facet normal 0.984808 -0.151876 0.0841862
    outer loop
      vertex -5.26228 10.6392 20.3997
      vertex -5.26228 29.1593 53.8109
      vertex -5.6 27.6996 55.1281
    endloop
  endfacet
  facet normal 0.984808 -0.151876 0.0841862
    outer loop
      vertex -5.6 8.96407 21.3283
      vertex -5.26228 10.6392 20.3997
      vertex -5.6 27.6996 55.1281
    endloop
  endfacet
  facet normal -0.2894 -0.250382 0.923881
    outer loop
      vertex 0.174093 0.967598 52.0445
      vertex -3.46809 23.8988 57.1182
      vertex -3.77261 24.1803 57.0991
    endloop
  endfacet
  facet normal -0.2894 -0.250382 0.923881
    outer loop
      vertex -14.2213 4.3042 48.4395
      vertex 0.174093 0.967598 52.0445
      vertex -3.77261 24.1803 57.0991
    endloop
  endfacet
  facet normal -0.302497 -0.859156 0.41273
    outer loop
      vertex 0.174093 -2.06954 45.7223
      vertex 0.174093 0.967598 52.0445
      vertex -14.2213 4.3042 48.4395
    endloop
  endfacet
  facet normal -0.657866 0.0178004 0.752925
    outer loop
      vertex -14.2213 4.3042 48.4395
      vertex -4.28985 24.4229 56.6415
      vertex -5.26228 25.8588 55.7579
    endloop
  endfacet
  facet normal -0.657866 0.0178004 0.752925
    outer loop
      vertex -3.77261 24.1803 57.0991
      vertex -4.28985 24.4229 56.6415
      vertex -14.2213 4.3042 48.4395
    endloop
  endfacet
  facet normal -0.657866 0.0178004 0.752925
    outer loop
      vertex -5.52481 27.4136 55.4917
      vertex -14.2213 4.3042 48.4395
      vertex -5.26228 25.8588 55.7579
    endloop
  endfacet
  facet normal 0.302497 -0.859156 0.41273
    outer loop
      vertex 14.5695 4.3042 48.4395
      vertex 0.174093 0.967598 52.0445
      vertex 0.174093 -2.06954 45.7223
    endloop
  endfacet
  facet normal 0.2894 -0.250382 0.923881
    outer loop
      vertex 14.5695 4.3042 48.4395
      vertex 3.98174 24.4448 57.2144
      vertex 3.88946 24.3595 57.2202
    endloop
  endfacet
  facet normal 0.2894 -0.250382 0.923881
    outer loop
      vertex 0.174093 0.967598 52.0445
      vertex 14.5695 4.3042 48.4395
      vertex 3.88946 24.3595 57.2202
    endloop
  endfacet
  facet normal 0.657866 0.0178003 0.752925
    outer loop
      vertex 14.5695 4.3042 48.4395
      vertex 5.83644 27.5108 55.5214
      vertex 5.3994 26.8374 55.9191
    endloop
  endfacet
  facet normal 0.657866 0.0178003 0.752925
    outer loop
      vertex 4.28985 24.5893 56.9418
      vertex 14.5695 4.3042 48.4395
      vertex 5.26228 26.0253 56.0582
    endloop
  endfacet
  facet normal 0.657866 0.0178003 0.752925
    outer loop
      vertex 5.26228 26.0253 56.0582
      vertex 14.5695 4.3042 48.4395
      vertex 5.3994 26.8374 55.9191
    endloop
  endfacet
  facet normal 0.657866 0.0178003 0.752925
    outer loop
      vertex 3.98174 24.4448 57.2144
      vertex 14.5695 4.3042 48.4395
      vertex 4.28985 24.5893 56.9418
    endloop
  endfacet
  facet normal -0.266444 0.612522 0.744193
    outer loop
      vertex 5.83644 27.5108 55.5214
      vertex 5.53933 27.4795 55.4407
      vertex 5.3994 26.8374 55.9191
    endloop
  endfacet
  facet normal -0.279275 0.384224 0.879987
    outer loop
      vertex 5.6 27.8048 55.3179
      vertex 5.53933 27.4795 55.4407
      vertex 5.83644 27.5108 55.5214
    endloop
  endfacet
  facet normal -0.279275 0.384224 0.879987
    outer loop
      vertex 5.52192 28.2014 55.12
      vertex 5.6 27.8048 55.3179
      vertex 5.83644 27.5108 55.5214
    endloop
  endfacet
  facet normal -0.984808 -0.151876 0.0841862
    outer loop
      vertex 5.6 27.8048 55.3179
      vertex 5.52192 28.2014 55.12
      vertex 5.6 8.96407 21.3283
    endloop
  endfacet
  facet normal -0.984808 -0.151876 0.0841862
    outer loop
      vertex 5.6 8.96407 21.3283
      vertex 5.52192 28.2014 55.12
      vertex 5.26228 29.3237 54.1073
    endloop
  endfacet
  facet normal -0.984808 -0.151876 0.0841862
    outer loop
      vertex 5.6 8.96407 21.3283
      vertex 5.26228 29.3237 54.1073
      vertex 5.26228 10.6392 20.3997
    endloop
  endfacet
  facet normal 0.866025 0.43731 -0.242405
    outer loop
      vertex -5.26228 25.8588 55.7579
      vertex -4.28985 24.4229 56.6415
      vertex -4.28985 5.81578 23.0734
    endloop
  endfacet
  facet normal 0.866025 0.43731 -0.242405
    outer loop
      vertex -5.26228 7.2889 22.2568
      vertex -5.26228 25.8588 55.7579
      vertex -4.28985 5.81578 23.0734
    endloop
  endfacet
  facet normal -0.984808 0.151876 -0.0841862
    outer loop
      vertex 5.3994 26.8374 55.9191
      vertex 5.53933 27.4795 55.4407
      vertex 5.26228 26.0253 56.0582
    endloop
  endfacet
  facet normal -0.984808 0.151876 -0.0841862
    outer loop
      vertex 5.6 8.96407 21.3283
      vertex 5.53933 27.4795 55.4407
      vertex 5.6 27.8048 55.3179
    endloop
  endfacet
  facet normal -0.984808 0.151876 -0.0841862
    outer loop
      vertex 5.26228 26.0253 56.0582
      vertex 5.53933 27.4795 55.4407
      vertex 5.6 8.96407 21.3283
    endloop
  endfacet
  facet normal -0.984808 0.151876 -0.0841862
    outer loop
      vertex 5.26228 26.0253 56.0582
      vertex 5.6 8.96407 21.3283
      vertex 5.26228 7.2889 22.2568
    endloop
  endfacet
  facet normal -0.866025 0.43731 -0.242405
    outer loop
      vertex 5.26228 26.0253 56.0582
      vertex 5.26228 7.2889 22.2568
      vertex 4.28985 24.5893 56.9418
    endloop
  endfacet
  facet normal -0.866025 0.43731 -0.242405
    outer loop
      vertex 4.28985 24.5893 56.9418
      vertex 5.26228 7.2889 22.2568
      vertex 4.28985 5.81578 23.0734
    endloop
  endfacet
  facet normal -0.642787 0.669998 -0.371386
    outer loop
      vertex 3.88946 24.3595 57.2202
      vertex 3.98174 24.4448 57.2144
      vertex 4.28985 24.5893 56.9418
    endloop
  endfacet
  facet normal -0.642787 0.669998 -0.371386
    outer loop
      vertex 3.88946 24.3595 57.2202
      vertex 4.28985 24.5893 56.9418
      vertex 2.8 23.3722 57.3246
    endloop
  endfacet
  facet normal -0.642787 0.669998 -0.371386
    outer loop
      vertex 4.28985 24.5893 56.9418
      vertex 4.28985 5.81578 23.0734
      vertex 2.8 23.3722 57.3246
    endloop
  endfacet
  facet normal -0.642787 0.669998 -0.371386
    outer loop
      vertex 4.28985 5.81578 23.0734
      vertex 2.8 4.72239 23.6795
      vertex 2.8 23.3722 57.3246
    endloop
  endfacet
  facet normal -0.34202 0.821874 -0.455572
    outer loop
      vertex 2.8 23.3722 57.3246
      vertex 2.8 4.72239 23.6795
      vertex 0.97243 22.8882 57.8235
    endloop
  endfacet
  facet normal -0.34202 0.821874 -0.455572
    outer loop
      vertex 0.97243 22.8882 57.8235
      vertex 2.8 4.72239 23.6795
      vertex 0.97243 4.14061 24.002
    endloop
  endfacet
  facet normal 0 0.87462 -0.48481
    outer loop
      vertex -0.262529 22.9702 57.9714
      vertex 0.174093 22.9297 57.8984
      vertex -0.97243 22.8093 57.6812
    endloop
  endfacet
  facet normal 0 0.87462 -0.48481
    outer loop
      vertex -0.97243 22.8093 57.6812
      vertex 0.174093 22.9297 57.8984
      vertex 0.610715 22.9702 57.9714
    endloop
  endfacet
  facet normal 0 0.87462 -0.48481
    outer loop
      vertex -0.97243 22.8093 57.6812
      vertex 0.610715 22.9702 57.9714
      vertex 0.97243 22.8882 57.8235
    endloop
  endfacet
  facet normal 0 0.87462 -0.48481
    outer loop
      vertex -0.97243 22.8093 57.6812
      vertex 0.97243 22.8882 57.8235
      vertex 0.97243 4.14061 24.002
    endloop
  endfacet
  facet normal 0 0.87462 -0.48481
    outer loop
      vertex -0.97243 22.8093 57.6812
      vertex 0.97243 4.14061 24.002
      vertex -0.97243 4.14061 24.002
    endloop
  endfacet
  facet normal 0.34202 0.821874 -0.455572
    outer loop
      vertex -0.97243 22.8093 57.6812
      vertex -0.97243 4.14061 24.002
      vertex -2.8 23.2933 57.1822
    endloop
  endfacet
  facet normal 0.34202 0.821874 -0.455572
    outer loop
      vertex -2.8 23.2933 57.1822
      vertex -0.97243 4.14061 24.002
      vertex -2.8 4.72239 23.6795
    endloop
  endfacet
  facet normal 0.642787 0.669998 -0.371386
    outer loop
      vertex -3.77261 24.1803 57.0991
      vertex -3.46809 23.8988 57.1182
      vertex -4.28985 24.4229 56.6415
    endloop
  endfacet
  facet normal 0.642787 0.669998 -0.371386
    outer loop
      vertex -4.28985 24.4229 56.6415
      vertex -3.46809 23.8988 57.1182
      vertex -2.8 23.2933 57.1822
    endloop
  endfacet
  facet normal 0.642787 0.669998 -0.371386
    outer loop
      vertex -4.28985 24.4229 56.6415
      vertex -2.8 23.2933 57.1822
      vertex -2.8 4.72239 23.6795
    endloop
  endfacet
  facet normal 0.642787 0.669998 -0.371386
    outer loop
      vertex -4.28985 24.4229 56.6415
      vertex -2.8 4.72239 23.6795
      vertex -4.28985 5.81578 23.0734
    endloop
  endfacet
  facet normal -0.316512 -0.252578 0.914344
    outer loop
      vertex 0.174093 0.967598 52.0445
      vertex 0.174093 22.7605 58.0646
      vertex -0.262529 22.9702 57.9714
    endloop
  endfacet
  facet normal -0.316512 -0.252578 0.914344
    outer loop
      vertex -2.8 23.2933 57.1822
      vertex 0.174093 0.967598 52.0445
      vertex -0.97243 22.8093 57.6812
    endloop
  endfacet
  facet normal -0.316512 -0.252578 0.914344
    outer loop
      vertex -0.97243 22.8093 57.6812
      vertex 0.174093 0.967598 52.0445
      vertex -0.262529 22.9702 57.9714
    endloop
  endfacet
  facet normal -0.316512 -0.252578 0.914344
    outer loop
      vertex -3.46809 23.8988 57.1182
      vertex 0.174093 0.967598 52.0445
      vertex -2.8 23.2933 57.1822
    endloop
  endfacet
  facet normal 0.316512 -0.252578 0.914344
    outer loop
      vertex 0.174093 0.967598 52.0445
      vertex 2.8 23.3722 57.3246
      vertex 0.97243 22.8882 57.8235
    endloop
  endfacet
  facet normal 0.316512 -0.252578 0.914344
    outer loop
      vertex 3.88946 24.3595 57.2202
      vertex 2.8 23.3722 57.3246
      vertex 0.174093 0.967598 52.0445
    endloop
  endfacet
  facet normal 0.316512 -0.252578 0.914344
    outer loop
      vertex 0.610715 22.9702 57.9714
      vertex 0.174093 22.7605 58.0646
      vertex 0.97243 22.8882 57.8235
    endloop
  endfacet
  facet normal 0.316512 -0.252578 0.914344
    outer loop
      vertex 0.174093 22.7605 58.0646
      vertex 0.174093 0.967598 52.0445
      vertex 0.97243 22.8882 57.8235
    endloop
  endfacet
  facet normal -0.181087 0.689109 0.701667
    outer loop
      vertex 0.610715 22.9702 57.9714
      vertex 0.174093 22.9297 57.8984
      vertex 0.174093 22.7605 58.0646
    endloop
  endfacet
  facet normal 0.181087 0.689109 0.701667
    outer loop
      vertex 0.174093 22.7605 58.0646
      vertex 0.174093 22.9297 57.8984
      vertex -0.262529 22.9702 57.9714
    endloop
  endfacet
endsolid OpenSCAD_Model
